<svg xmlns="http://www.w3.org/2000/svg" viewBox="0 0 512 512"><g id="cyberthug_small"><path d="M298.19,137.23c5.66,83.45-32,50.07-51.55,137.21-17.29,76.93-43.46,104.67-123.52,61.77" style="fill:none;stroke:#000;stroke-miterlimit:10;stroke-width:16px"/><path d="M151.38,277.21s45.46-38.3,69.41,2.6C162,305.85,151.38,277.21,151.38,277.21Z" style="fill:none;stroke:#000;stroke-linejoin:round;stroke-width:16px"/><path id="head" d="M399.87,311l.68,50.08c0,89-69.44,140.57-138.88,140.57h0c-69.44,0-138.88-51.61-138.88-140.57l1.57-118.51c0-70.1,44.32-107.19,137.31-107.19S399,172.51,399,242.61Z" style="fill:none;stroke:#000;stroke-miterlimit:10;stroke-width:16px"/><path id="mouth" d="M216.46,427.59c6.53-6.18,12.66-5.46,12.66-5.46h65s6.13-.72,12.65,5.46" style="fill:none;stroke:#000;stroke-linecap:round;stroke-linejoin:round;stroke-width:16px"/><path id="left_eyebrow" data-name="left eyebrow" d="M298.72,221.08s63-7.52,77.41,10.37c-32.88-8.2-77.41-.75-77.41-.75Z" style="stroke:#000;stroke-linecap:round;stroke-linejoin:round;stroke-width:16px"/><path d="M368.47,294.64s-24.06-43.1-66.17,0C336.39,320.2,368.47,294.64,368.47,294.64Z" style="fill:none;stroke:#000;stroke-linejoin:round;stroke-width:16px"/><path d="M244.47,371.73c.77,1,6.85,9,17.2,9s16.44-7.93,17.2-9" style="fill:none;stroke:#000;stroke-linecap:round;stroke-linejoin:round;stroke-width:16px"/><polyline points="399.15 253.45 283.45 253.45 268.26 268.08 268.26 312.59 283.45 327.98 400.14 327.98" style="fill:none;stroke:#000;stroke-linecap:round;stroke-linejoin:round;stroke-width:16px"/><polyline points="400.55 275 421.32 275 421.43 306.43 399.81 306.43" style="fill:none;stroke:#000;stroke-linecap:round;stroke-linejoin:round;stroke-width:16px"/><polyline points="125.67 222.8 98.4 231.91 97.18 269.28 123.85 281.44" style="fill:none;stroke:#000;stroke-linecap:round;stroke-linejoin:round;stroke-width:16px"/><path d="M97.74,252.12c-65-.24-29.85,107.27,27.93,139.37" style="fill:none;stroke:#000;stroke-linecap:round;stroke-linejoin:round;stroke-width:16px"/><path d="M374.73,179.29c7.12-27.27,10-59.79-10.6-81.74-13.26-14.44-32.05-23-50.05-31.24-29.25-13.06-60.57-25.77-82.28-50.74l13-1.4L233.77,34.28a8,8,0,0,1-10.87,3.16,8.2,8.2,0,0,1-3.13-3.11L208.55,14.21l12.41,2-1,1c-8.26,9.5-15,20.67-18.57,32.76a61.69,61.69,0,0,0,1,38.06c2.72,8.42,7.09,16.52,12,24.68a4.58,4.58,0,0,1-6.92,5.82c-25.91-22.4-32.24-57.88-16.69-88.33A90.18,90.18,0,0,1,208.44,6c.4-.39,1.25-1.16,1.66-1.54a8,8,0,0,1,12.42,2l11.22,20.12-14,0L230.82,6.45a8,8,0,0,1,13-1.4C264,28,293.23,39.35,320.64,51.72c19.76,9,40.08,18.43,55.34,35.08,24.49,26,22.86,64.47,14.24,96.5-3,10.21-17.8,6.42-15.49-4Z"/><path d="M191.93,78S173,79.46,164,63.12c0,0-72.88,56.66-23.13,118.17" style="fill:none;stroke:#000;stroke-linecap:round;stroke-linejoin:round;stroke-width:16px"/><g id="FRAME" style="opacity:0.01"><path d="M512,0h0V512H0V0H512m0,0H0V512H512V0Z"/></g><path id="left_eyebrow-2" data-name="left eyebrow" d="M224.79,224.54s-63-7.53-77.41,10.36c32.88-8.19,77.41-.74,77.41-.74Z" style="stroke:#000;stroke-linecap:round;stroke-linejoin:round;stroke-width:16px"/></g></svg>