<svg xmlns="http://www.w3.org/2000/svg" width="512" height="512" viewBox="0 0 512 512"><g id="_10-phoenixNest" data-name="10-phoenixNest"><g style="opacity:0.01"><path d="M512,0h0V512H0V0H512m0,0H0V512H512V0Z"/></g><path d="M384,278.05c0,101.62-57.31,149-128,149S128,379.67,128,278.05,200,59,256,59,384,176.43,384,278.05Z" style="fill:none;stroke:#000;stroke-linecap:round;stroke-linejoin:round;stroke-width:16px"/><path d="M456,453.55c-116.51-.22-352,6.91-434.23-82.05a136.13,136.13,0,0,1-9.72-11.92c-5.86-8.8,6.36-17.76,13-9.38,55.21,79.93,225.19,89.11,316,94.89,38.27,2,76.63,2.9,115,3.36a2.55,2.55,0,0,1,0,5.1Z" style="fill:#000"/><path d="M500,359.58C455.2,421,357.54,437,286.59,445.51c-76.65,8.31-153.67,8.81-230.59,8a2.55,2.55,0,0,1,0-5.1c38.36-.46,76.72-1.39,115-3.36,75.9-4.44,153-10.43,225.41-34.61,34.4-12,69.62-29.68,90.44-60.08,6.34-8.6,19.06.07,13.11,9.18Z" style="fill:#000"/><path d="M456,434.35c-68.26.78-136.53,1.35-204.69-4.38-38.55-3.45-77.27-8.76-114.25-20.91-20.93-6.86-41.44-16.42-58.87-30a133.53,133.53,0,0,1-19.43-19.13,8,8,0,1,1,12.36-10.17A116.65,116.65,0,0,0,95,372.69c63,44.7,182.19,50.39,259,54.07,34,1.38,68,2,102.07,2.49a2.55,2.55,0,0,1,0,5.1Z" style="fill:#000"/><path d="M453.24,359.93c-19.89,24.51-48.79,39.43-78.3,49.13-69.85,22.11-144.1,23.84-216.66,25.52-34.12.47-68.21.21-102.28-.23a2.55,2.55,0,0,1,0-5.1c84.75-1.57,170.19-2.26,253.78-17.15,32.71-6.25,65.35-14.75,94.43-31.22a144.1,144.1,0,0,0,15.21-10,112.61,112.61,0,0,0,21.34-20.94c6.91-8.16,19,1.36,12.48,10Z" style="fill:#000"/><path d="M456,415.15c-59.56.8-119,2.5-178.64-.65-30-1.72-60-4.65-89.4-11.68a225.06,225.06,0,0,1-38.19-12.52c-3.07-1.24-7.53-3.56-10.53-5-2.87-1.65-7.44-4.08-10.16-6a117.46,117.46,0,0,1-23-19,8,8,0,1,1,12-10.64,106.12,106.12,0,0,0,21.5,18.5c56,36.13,160.51,38,227.29,40.28,29.68.78,59.4,1.13,89.13,1.59a2.55,2.55,0,0,1,0,5.1Z" style="fill:#000"/><path d="M405.88,360.32c-18.77,20.29-44.58,32.23-70.79,39.61-18.18,5.17-37.06,8.44-55.66,10.73-74.23,8.44-149,5.26-223.43,4.49a2.55,2.55,0,0,1,0-5.1c74-1.5,148.49-.59,221.81-11.19,26.92-4.24,53.72-10.09,78.41-21.72,1.19-.52,3.62-1.73,4.76-2.37l4.69-2.48,4.51-2.73a104.5,104.5,0,0,0,23.9-20.06c7.44-7.71,18.87,2.63,11.8,10.82Z" style="fill:#000"/></g></svg>
