<?xml version="1.0" encoding="utf-8"?>
<!-- Generator: Adobe Illustrator 23.0.3, SVG Export Plug-In . SVG Version: 6.00 Build 0)  -->
<svg version="1.1" xmlns="http://www.w3.org/2000/svg" xmlns:xlink="http://www.w3.org/1999/xlink" x="0px" y="0px"
	 viewBox="0 0 200 200" style="enable-background:new 0 0 200 200;" xml:space="preserve">
<style type="text/css">
	.st0{opacity:0.5;}
	.st1{fill:none;stroke:#FFFFFF;stroke-width:5;stroke-miterlimit:10;}
	.st2{fill:#FFFFFF;}
</style>
<g id="Layer_1">
</g>
<g id="back" class="st0">
	<path class="st1" d="M79.96,55.58c6.08-0.55,12.91-0.86,20.12-0.86c7.83,0,15.2,0.36,21.66,1.01"/>
	<path class="st1" d="M65.45,92.34c9.85-1.25,21.75-1.99,34.55-1.99c12.97,0,25,0.75,34.93,2.04"/>
	<path class="st1" d="M74.18,133.15c7.37-0.93,16.25-1.47,25.82-1.47c9.81,0,18.9,0.57,26.37,1.54"/>
</g>
<g id="mid">
	<path class="st2" d="M112.38,60.66H100H87.6c-12.4,0-13.06,12.04-13.06,12.04v35.79c0,6.39,9.45,6.39,9.45,0V77.62h3.18v85.07
		c0,7.1,11.07,7.13,11.07,0.05v-50.11H100h1.76v50.11c0,7.08,11.05,7.06,11.05-0.05V77.62h3.17v30.87c0,6.39,9.43,6.39,9.43,0V72.7
		C125.42,72.7,124.76,60.66,112.38,60.66z"/>
	<circle class="st2" cx="99.98" cy="47.05" r="10.77"/>
</g>
<g id="front" class="st0">
	<path class="st1" d="M121.74,55.73c14.58,1.45,24.51,4.31,24.51,7.61c0,4.76-20.67,8.62-46.18,8.62S53.9,68.1,53.9,63.34
		c0-3.41,10.63-6.36,26.06-7.76"/>
	<path class="st1" d="M134.93,92.39c16.09,2.08,26.64,5.56,26.64,9.51c0,6.38-27.56,11.54-61.57,11.54s-61.57-5.17-61.57-11.54
		c0-3.97,10.71-7.48,27.02-9.56"/>
	<path class="st1" d="M126.37,133.23c11.97,1.56,19.8,4.15,19.8,7.08c0,4.76-20.67,8.62-46.18,8.62s-46.18-3.86-46.18-8.62
		c0-2.98,8.08-5.6,20.36-7.15"/>
</g>
</svg>
