<?xml version="1.0" encoding="utf-8"?>
<!-- Generator: Adobe Illustrator 27.7.0, SVG Export Plug-In . SVG Version: 6.00 Build 0)  -->
<svg version="1.1" xmlns="http://www.w3.org/2000/svg" xmlns:xlink="http://www.w3.org/1999/xlink" x="0px" y="0px"
	 viewBox="0 0 900 600" style="enable-background:new 0 0 900 600;" xml:space="preserve">
<style type="text/css">
	.st0{display:none;}
	.st1{display:inline;fill:#181818;}
	.st2{display:inline;fill:#282828;}
	.st3{fill:#282828;}
	.st4{fill:none;stroke:#282828;stroke-width:24;stroke-miterlimit:10;}
</style>
<g id="layer" class="st0">
	<rect id="rect183" class="st1" width="900" height="600"/>
	<path class="st2" d="M0,472.1l157.9-148.5l199,151.6l225.3-218.4L900,471.7V600H0V472.1z M279.6,85.5c39,0,70.7,31.7,70.7,70.7
		s-31.7,70.7-70.7,70.7s-70.7-31.7-70.7-70.7S240.6,85.5,279.6,85.5L279.6,85.5z"/>
</g>
<g id="Layer_2">
	<g>
		<path class="st3" d="M876,24v552H24V24H876 M900,0H0v600h900V0L900,0z"/>
	</g>
	<polyline class="st4" points="0,472.1 157.9,323.6 356.9,475.2 582.2,256.8 900,471.7 	"/>
	<circle class="st4" cx="289.7" cy="170.6" r="78.7"/>
</g>
</svg>
