<?xml version="1.0" encoding="UTF-8" standalone="no"?>
<svg
   id="greyscale"
   viewBox="0 0 1024 1024"
   version="1.1"
   sodipodi:docname="sketches.svg"
   inkscape:version="1.1.2 (b8e25be833, 2022-02-05)"
   xmlns:inkscape="http://www.inkscape.org/namespaces/inkscape"
   xmlns:sodipodi="http://sodipodi.sourceforge.net/DTD/sodipodi-0.dtd"
   xmlns="http://www.w3.org/2000/svg"
   xmlns:svg="http://www.w3.org/2000/svg">
  <defs
     id="defs31">
    <inkscape:path-effect
       effect="fillet_chamfer"
       id="path-effect2568"
       is_visible="true"
       lpeversion="1"
       satellites_param="F,0,0,1,0,0,0,1 @ F,0,0,1,0,0,0,1 @ F,0,0,1,0,0,0,1 @ F,0,0,1,0,0,0,1 @ F,0,0,1,0,0,0,1 @ F,0,0,1,0,0,0,1 @ F,0,0,1,0,0,0,1 @ F,0,0,1,0,0,0,1 @ F,0,0,1,0,0,0,1 @ F,0,0,1,0,0,0,1 @ F,0,0,1,0,0,0,1 @ F,0,0,1,0,0,0,1 @ F,0,0,1,0,0,0,1"
       unit="px"
       method="auto"
       mode="F"
       radius="30"
       chamfer_steps="1"
       flexible="false"
       use_knot_distance="true"
       apply_no_radius="true"
       apply_with_radius="true"
       only_selected="true"
       hide_knots="false" />
    <inkscape:path-effect
       effect="fillet_chamfer"
       id="path-effect1722"
       is_visible="true"
       lpeversion="1"
       satellites_param="F,0,0,1,0,100,0,1 @ F,0,0,1,0,100,0,1 @ F,0,0,1,0,100,0,1 @ F,0,0,1,0,100,0,1"
       unit="px"
       method="auto"
       mode="F"
       radius="100"
       chamfer_steps="1"
       flexible="false"
       use_knot_distance="true"
       apply_no_radius="true"
       apply_with_radius="true"
       only_selected="false"
       hide_knots="false" />
    <inkscape:path-effect
       effect="fillet_chamfer"
       id="path-effect1722-6"
       is_visible="true"
       lpeversion="1"
       satellites_param="F,0,0,1,0,100,0,1 @ F,0,0,1,0,100,0,1 @ F,0,0,1,0,100,0,1 @ F,0,0,1,0,100,0,1"
       unit="px"
       method="auto"
       mode="F"
       radius="100"
       chamfer_steps="1"
       flexible="false"
       use_knot_distance="true"
       apply_no_radius="true"
       apply_with_radius="true"
       only_selected="false"
       hide_knots="false" />
    <style
       id="style2665">.cls-1{fill:none;stroke:#000;stroke-linecap:round;stroke-linejoin:round;stroke-width:32px;}</style>
    <style
       id="style2685">.cls-1{fill:none;stroke:#000;stroke-linecap:round;stroke-linejoin:round;stroke-width:32px;}</style>
    <style
       id="style2705">.cls-1,.cls-2{fill:none;stroke:#000;stroke-width:32px;}.cls-1{stroke-linecap:round;stroke-linejoin:round;}.cls-2{stroke-miterlimit:10;}</style>
  </defs>
  <sodipodi:namedview
     id="namedview29"
     pagecolor="#ffffff"
     bordercolor="#666666"
     borderopacity="1.0"
     inkscape:pageshadow="2"
     inkscape:pageopacity="0.0"
     inkscape:pagecheckerboard="0"
     showgrid="true"
     showguides="true"
     inkscape:guide-bbox="true"
     inkscape:zoom="0.79882812"
     inkscape:cx="463.17848"
     inkscape:cy="513.25183"
     inkscape:window-width="1920"
     inkscape:window-height="1027"
     inkscape:window-x="-8"
     inkscape:window-y="-8"
     inkscape:window-maximized="1"
     inkscape:current-layer="greyscale">
    <sodipodi:guide
       position="512,750.04043"
       orientation="-1,0"
       id="guide68"
       inkscape:label=""
       inkscape:locked="false"
       inkscape:color="rgb(0,0,255)" />
    <sodipodi:guide
       position="409.11296,512"
       orientation="0,1"
       id="guide70"
       inkscape:label=""
       inkscape:locked="false"
       inkscape:color="rgb(0,0,255)" />
    <sodipodi:guide
       position="973.92665,1024"
       orientation="0,1"
       id="guide1951"
       inkscape:label=""
       inkscape:locked="false"
       inkscape:color="rgb(0,0,255)" />
    <sodipodi:guide
       position="977.68215,0"
       orientation="0,1"
       id="guide1953"
       inkscape:label=""
       inkscape:locked="false"
       inkscape:color="rgb(0,0,255)" />
    <inkscape:grid
       type="xygrid"
       id="grid2859"
       empspacing="8" />
  </sodipodi:namedview>
  <g
     id="camera"
     transform="matrix(2,0,0,2,0,12)"
     style="display:none;opacity:0.231707"
     sodipodi:insensitive="true">
    <path
       d="M 445.64,124 A 34.39,34.39 0 0 1 480,158.36 V 393.64 A 34.39,34.39 0 0 1 445.64,428 H 66.36 A 34.39,34.39 0 0 1 32,393.64 V 158.36 A 34.39,34.39 0 0 1 66.36,124 h 379.28 m 0,-32 H 66.36 A 66.36,66.36 0 0 0 0,158.36 V 393.64 A 66.36,66.36 0 0 0 66.36,460 H 445.64 A 66.36,66.36 0 0 0 512,393.64 V 158.36 A 66.36,66.36 0 0 0 445.64,92 Z"
       id="path2669" />
    <polyline
       class="cls-1"
       points="404 108 404 56 300 56 300 108"
       id="polyline2671" />
    <circle
       class="cls-1"
       cx="256"
       cy="276"
       r="117.64"
       id="circle2673" />
  </g>
  <g
     id="pencil"
     transform="matrix(2.0052742,0,0,2.0052742,-0.94412774,-1.6860794)"
     style="display:none;opacity:0.231707"
     sodipodi:insensitive="true">
    <path
       class="cls-1"
       d="M 173.67,446.9 487.76,132.81 a 25.52,25.52 0 0 0 0,-36.07 l -72.5,-72.5 a 25.52,25.52 0 0 0 -36.07,0 L 65.1,338.33 16.47,495.46 Z"
       id="path2689" />
    <polyline
       class="cls-1"
       points="65.11 338.33 123.91 334.14 119.66 392.56 178.08 388.31 173.67 446.89"
       id="polyline2691" />
    <line
       class="cls-1"
       x1="338.70001"
       y1="64.730003"
       x2="447.26999"
       y2="173.3"
       id="line2693" />
  </g>
  <g
     id="photos"
     transform="scale(2)"
     style="display:none;opacity:0.231707"
     sodipodi:insensitive="true">
    <path
       d="M 411.62,64 A 68.46,68.46 0 0 1 480,132.36 V 379.64 A 68.46,68.46 0 0 1 411.62,448 H 100.38 A 68.46,68.46 0 0 1 32,379.64 V 132.36 A 68.46,68.46 0 0 1 100.38,64 h 311.24 m 0,-32 H 100.38 A 100.38,100.38 0 0 0 0,132.36 V 379.64 A 100.38,100.38 0 0 0 100.38,480 H 411.62 A 100.38,100.38 0 0 0 512,379.64 V 132.36 A 100.38,100.38 0 0 0 411.62,32 Z"
       id="path2709" />
    <polyline
       class="cls-1"
       points="28 400 132 312 220 376 356 248 492 328"
       id="polyline2711" />
    <circle
       class="cls-2"
       cx="148"
       cy="168"
       r="40"
       id="circle2713" />
  </g>
  <g
     id="g3436"
     inkscape:label="projects"
     style="display:none">
    <rect
       style="fill:none;fill-opacity:1;stroke:#000000;stroke-width:64;stroke-miterlimit:4;stroke-dasharray:none;stroke-opacity:1"
       id="rect2861"
       width="960"
       height="832"
       x="32"
       y="96" />
    <path
       style="fill:none;stroke:#000000;stroke-width:64;stroke-linecap:butt;stroke-linejoin:miter;stroke-miterlimit:4;stroke-dasharray:none;stroke-opacity:1"
       d="M 32,816 256,624 432,752 704,496 992,656"
       id="path3088" />
    <circle
       style="fill:none;fill-opacity:1;stroke:#000000;stroke-width:64;stroke-miterlimit:4;stroke-dasharray:none;stroke-opacity:1"
       id="path3112"
       cx="320"
       cy="352"
       r="96" />
  </g>
  <path
     style="display:inline;fill:none;stroke:#000000;stroke-width:64;stroke-linecap:butt;stroke-linejoin:round;stroke-miterlimit:4;stroke-dasharray:none;stroke-opacity:1"
     d="M 784,32 992,240 352,880 32,992 144,672 Z"
     id="path3584"
     sodipodi:nodetypes="cccccc" />
  <path
     style="fill:none;stroke:#000000;stroke-width:64;stroke-linecap:butt;stroke-linejoin:round;stroke-miterlimit:4;stroke-dasharray:none;stroke-opacity:1"
     d="m 160,672 h 96 v 96 h 96 v 96"
     id="path3927" />
  <path
     style="fill:none;stroke:#000000;stroke-width:64;stroke-linecap:butt;stroke-linejoin:miter;stroke-miterlimit:4;stroke-dasharray:none;stroke-opacity:1"
     d="M 672,144 880,352"
     id="path4075" />
</svg>
