<svg xmlns="http://www.w3.org/2000/svg" width="512" height="512" viewBox="0 0 512 512"><g id="_06-android" data-name="06-android"><path d="M380.9,199l42.48-73.58a8.58,8.58,0,0,0-14.77-8.72l0,.06-43,74.53c-32.82-15-69.78-23.36-109.52-23.36s-76.7,8.36-109.52,23.36l-43-74.53a8.6,8.6,0,1,0-14.87,8.64l42.47,73.58C57.81,238.64,8.2,312.78,0,399.56H512C503.8,312.78,454.19,238.64,380.9,199ZM138.45,327.65a21.46,21.46,0,1,1,21.46-21.46A21.45,21.45,0,0,1,138.45,327.65Zm235,0A21.46,21.46,0,1,1,395,306.19,21.46,21.46,0,0,1,373.49,327.65Z" style="fill:#2edf85"/><circle cx="373.49" cy="306.19" r="21.46" transform="translate(-107.12 353.78) rotate(-45)" style="fill:#fff"/><g style="opacity:0.01"><path d="M512,0h0V512H0V0H512M373.49,327.65A21.46,21.46,0,1,0,352,306.19a21.49,21.49,0,0,0,21.46,21.46m-235,0A21.46,21.46,0,1,0,117,306.19a21.49,21.49,0,0,0,21.46,21.46M512,0H0V512H512V0ZM373.49,327.65A21.46,21.46,0,1,1,395,306.19a21.46,21.46,0,0,1-21.46,21.46Zm-235,0a21.46,21.46,0,1,1,21.46-21.46,21.45,21.45,0,0,1-21.46,21.46Z"/></g><circle cx="138.45" cy="306.19" r="21.46" transform="translate(-191.36 370.59) rotate(-76.72)" style="fill:#fff"/></g></svg>