<?xml version="1.0" encoding="UTF-8"?>
<svg id="atom_BW" data-name="atom BW" xmlns="http://www.w3.org/2000/svg" viewBox="0 0 1024 1024">
  <path d="M370.94,420.41c14.85-2.13,30.64-3.81,47.29-4.98-5.72,8.2-11.3,16.49-16.74,24.87-5.43,8.38-10.73,16.86-15.88,25.42-5.44-14.92-10.33-30.04-14.67-45.31Zm606.65,91.59c0,257.14-208.45,465.59-465.59,465.59S46.41,769.14,46.41,512,254.86,46.41,512,46.41s465.59,208.45,465.59,465.59Zm-165.35-41.93c-16.45-15.8-39.98-30.28-69.92-43.03-59.44-25.31-139.06-41.71-224.2-46.17-9.99-.53-19.98-.9-29.98-1.11,65-77.58,127.77-118.86,164.33-120.25,7.74-.3,14.24,1.23,19.33,4.54,17.11,11.12,21.86,45.61,12.7,92.26-1.66,9.24,4.49,18.07,13.72,19.73,9.03,1.62,17.71-4.22,19.63-13.18,15.74-80.2-6.28-113.49-27.53-127.31-11.09-7.2-24.26-10.57-39.15-10-56.23,2.13-135.02,62.09-206.91,154.53-28.47,.98-55.91,3.44-81.58,7.28-2.73-12.54-4.89-25.19-6.47-37.93-6.45-53.14,1.46-90.86,21.16-100.9,3.16-1.61,6.62-2.55,10.57-2.84,17.59-1.32,42.42,10.5,69.86,33.29,7.27,5.93,17.98,4.85,23.91-2.43,5.86-7.18,4.88-17.73-2.2-23.72-35.24-29.27-66.91-43.07-94.12-41.03-8.41,.63-16.31,2.8-23.46,6.45-18.3,9.33-30.8,27.2-37.16,53.1-5.45,22.18-6.22,49.83-2.29,82.18,1.55,12.79,3.82,26.11,6.75,39.82-20.08,4.23-38.67,9.38-55.35,15.4-72.94,26.35-89.78,61.09-91.06,85.58-1.23,23.4,10.75,58.23,74.77,91.24,8.43,4.13,18.61,.64,22.73-7.78,4.01-8.19,.85-18.07-7.16-22.42-36.82-18.99-57.39-40.59-56.41-59.26,1.38-26.3,45.47-54.14,120.57-69.83,6.96,25.12,15.89,51.22,26.6,77.68-26.99,50.67-46.68,100.6-56.89,145.03-7.3,31.74-9.44,59.3-6.34,81.9,3.6,26.41,14.17,45.48,31.38,56.67,8.78,5.71,20.62,10.17,36.16,10.17,22.53,0,52.87-9.39,92.97-37.99,7.67-5.4,9.51-16.01,4.1-23.68-5.4-7.67-16.01-9.51-23.68-4.1-.05,.03-.11,.07-.16,.11-39.53,28.2-73.49,38.28-90.86,26.99-18.53-12.04-22.44-50.34-10.45-102.46,7.94-34.56,22.12-72.86,41.35-112.35,4.2,9.01,8.56,17.95,13.07,26.81,38.7,76.01,86.07,142.15,133.39,186.23,23.83,22.2,46.63,37.82,67.75,46.45,12.82,5.23,24.85,7.85,36.02,7.85,10.34,0,19.95-2.24,28.74-6.73,17.64-9,29.91-25.97,36.47-50.44,5.61-20.96,6.87-47.1,3.75-77.71-6.15-60.17-28.89-133.57-64.03-206.66-4.22-8.38-14.44-11.75-22.82-7.52-8.16,4.11-11.61,13.94-7.8,22.25,33.48,69.63,55.09,139.02,60.84,195.38,5.06,49.57-3.1,84.87-21.85,94.43-19.68,10.03-54.78-5.73-93.9-42.17-44.49-41.43-89.33-104.22-126.28-176.78-8.3-16.31-16.07-32.89-23.3-49.71,8.97-16.02,18.46-31.74,28.45-47.14,9.97-15.38,20.43-30.43,31.37-45.13,2.79-.04,5.6-.07,8.42-.08,14.6-.05,30.24,.36,46.55,1.22,81.26,4.26,156.79,19.71,212.67,43.51,49.14,20.93,77.79,46.61,76.64,68.69-.98,18.75-23.77,38.14-62.51,53.18-8.71,3.5-12.93,13.4-9.42,22.11,3.44,8.55,13.08,12.8,21.71,9.57,67.33-26.14,82.92-59.61,84.15-83.08,1.08-20.51-8.12-40.27-27.34-58.71Zm-298.98,8.88c-20.51,0-37.13,16.64-37.13,37.16s16.62,37.16,37.13,37.16,37.13-16.64,37.13-37.16-16.62-37.16-37.13-37.16Z"/>
</svg>