<svg id="Layer_1" data-name="Layer 1" xmlns="http://www.w3.org/2000/svg" viewBox="0 0 1024 1024"><defs><style>.cls-1{fill:#265787;}.cls-2{fill:#ea7600;}.cls-3{fill:#fff;}</style></defs><g id="color"><path class="cls-1" d="M773.38,655.45c-25.23,24.58-61.12,40-101.31,40s-76.15-15.43-101.36-40c-24.76-24.16-38.83-56.76-36.9-91.82,1.92-34.15,18.64-64.24,43.87-85.57,24.75-20.95,58.05-33.76,94.39-33.76s69.61,12.81,94.37,33.76c25.22,21.33,41.94,51.42,43.87,85.53C812.23,598.69,798.12,631.29,773.38,655.45Z"/><path class="cls-2" d="M1021,560.18a303.77,303.77,0,0,0-43.33-118.57,330.77,330.77,0,0,0-79-87.15l.08,0L578.82,108.8a10.31,10.31,0,0,0-.83-.65c-21-16.12-56.28-16.06-79.36.09-23.34,16.32-26,43.32-5.24,60.36l-.09.09L626.72,277.18l-406.65.43h-.54c-33.62,0-65.93,22.09-72.32,50-6.58,28.39,16.25,51.94,51.2,52.07l0,.13,206.11-.4L36.67,661.68c-.47.35-1,.71-1.41,1.05-34.69,26.57-45.91,70.75-24,98.71,22.17,28.42,69.33,28.48,104.39.16L316.33,597.31s-2.92,22.18-2.69,35.49,4.5,39.34,10.89,59.62c13.44,42.94,36.24,82.65,68,117.65,32.55,36,72.63,64.88,118.92,85.4C560.05,917,612.78,928,667.54,927.91a382.66,382.66,0,0,0,156.05-33c46.29-20.72,86.33-49.74,118.82-85.74,31.7-35.15,54.46-74.94,67.93-117.87A296.17,296.17,0,0,0,1021,560.18ZM873.64,637.7a193.63,193.63,0,0,1-44.18,69.37c-41.36,42.14-99.27,66-161.92,66.16s-120.65-23.57-162-65.63a192.71,192.71,0,0,1-44.22-69.21,179.86,179.86,0,0,1-10.15-77.34,182.72,182.72,0,0,1,22.16-72.81,200.93,200.93,0,0,1,49.2-58.5c40.21-32.76,91.39-50.5,144.93-50.57s104.74,17.5,145,50.16a199.83,199.83,0,0,1,49.14,58.32,182.49,182.49,0,0,1,22.25,72.76A180.21,180.21,0,0,1,873.64,637.7Z"/><path class="cls-3" d="M883.82,560.41a182.49,182.49,0,0,0-22.25-72.76,199.83,199.83,0,0,0-49.14-58.32c-40.24-32.66-91.39-50.23-145-50.16S562.73,397,522.52,429.74a200.93,200.93,0,0,0-49.2,58.5,182.72,182.72,0,0,0-22.16,72.81,179.86,179.86,0,0,0,10.15,77.34,192.71,192.71,0,0,0,44.22,69.21c41.36,42.06,99.26,65.74,162,65.63s120.56-24,161.92-66.16a193.63,193.63,0,0,0,44.18-69.37A180.21,180.21,0,0,0,883.82,560.41Zm-110.44,95c-25.23,24.58-61.12,40-101.31,40s-76.15-15.43-101.36-40c-24.76-24.16-38.83-56.76-36.9-91.82,1.92-34.15,18.64-64.24,43.87-85.57,24.75-20.95,58.05-33.76,94.39-33.76s69.61,12.81,94.37,33.76c25.22,21.33,41.94,51.42,43.87,85.53C812.23,598.69,798.12,631.29,773.38,655.45Z"/></g></svg>