<?xml version="1.0" encoding="UTF-8"?>
<svg id="svg5" xmlns="http://www.w3.org/2000/svg" viewBox="0 0 728 128">
  <defs>
    <style>
      .cls-1 {
        fill: #fff;
      }
    </style>
  </defs>
  <path id="path16341" class="cls-1" d="m712,112l-8,16h24V0h-328l-8,16-.011,79.995h16.004l-.002-47.998h32.003v47.998h15.996V31.994l-47.999.003.011-7.997,3.993-8h300.007v96Zm-16.01-80.004h-64.001v64.001h47.997l.002,8.002-4,8-43.999-.002-8,16,63.999.002,8.001-15.999V31.996Zm-48.004,16.004h32v32h-32v-32Zm-39.997,79.997l8.001-15.999V31.994s-64,0-64,0v64.001h47.997l.002,8.002-4,8-579.989.003V16h144l8-16H0v128s607.989-.003,607.989-.003Zm-40.002-79.999h32v32h-32v-32ZM207.993,31.997v64.001h47.997s8-16.001,8-16.001l-.003-48.003h-15.997v40.003l-4,8-20,.005V31.997h-15.997Zm-112.006-.004v64.001h32l8.002-15.998h-23.999s0-31.999,0-31.999h32v47.997h15.997V31.992h-64.001Zm-64.001,0v64.001h48.004v-15.997h-32v-32h32v-16.004H31.985ZM184,0l-8,16-.009,79.993h15.997l.012-71.993,3.993-8h180.007l8-16h-200Zm95.99,31.994v64.001h15.997V31.994h-15.997Zm32,0v64.001h15.997v-47.997h32v47.997h16.004V31.994h-64.001Zm160.002,0v64.001h63.994V31.994h-63.994Zm15.997,16.004h32v32h-32v-32Z"/>
</svg>