<?xml version="1.0" encoding="UTF-8" standalone="no"?>
<svg
   id="greyscale"
   width="512"
   height="512"
   viewBox="0 0 512 512"
   version="1.1"
   sodipodi:docname="creativeCloud.svg"
   inkscape:version="1.1.2 (b8e25be833, 2022-02-05)"
   xmlns:inkscape="http://www.inkscape.org/namespaces/inkscape"
   xmlns:sodipodi="http://sodipodi.sourceforge.net/DTD/sodipodi-0.dtd"
   xmlns="http://www.w3.org/2000/svg"
   xmlns:svg="http://www.w3.org/2000/svg">
  <defs
     id="defs844" />
  <sodipodi:namedview
     id="namedview842"
     pagecolor="#ffffff"
     bordercolor="#666666"
     borderopacity="1.0"
     inkscape:pageshadow="2"
     inkscape:pageopacity="0.0"
     inkscape:pagecheckerboard="0"
     showgrid="false"
     inkscape:zoom="1.5976562"
     inkscape:cx="255.68704"
     inkscape:cy="256"
     inkscape:window-width="1920"
     inkscape:window-height="1027"
     inkscape:window-x="-8"
     inkscape:window-y="-8"
     inkscape:window-maximized="1"
     inkscape:current-layer="greyscale"
     showguides="true"
     inkscape:guide-bbox="true">
    <sodipodi:guide
       position="0,444.40098"
       orientation="-1,0"
       id="guide916"
       inkscape:label=""
       inkscape:locked="false"
       inkscape:color="rgb(0,0,255)" />
    <sodipodi:guide
       position="-25.662592,512"
       orientation="0,1"
       id="guide918"
       inkscape:label=""
       inkscape:locked="false"
       inkscape:color="rgb(0,0,255)" />
  </sodipodi:namedview>
  <path
     id="path835"
     style="stroke-width:0.5"
     d="m 305.64669,132.96502 c -17.54811,0.15428 -35.15033,3.7218 -51.08783,11.15538 -11.11036,5.15021 -16.34976,7.73532 -25.32867,16.055 -1.36202,1.33926 -1.73018,2.67911 0.35971,3.91367 5.4207,2.15956 10.70245,4.66229 15.90006,7.31094 3.68682,1.94479 7.34158,3.95528 10.85825,6.19762 2.45405,1.55894 4.88901,2.97241 7.24863,4.64879 0.48499,0.56234 0.97949,0.60472 1.48505,0.0412 7.56231,-5.37666 12.04429,-5.33594 21.09673,-7.43383 8.19452,-1.92025 15.72616,-2.18532 24.12345,-1.90568 15.58532,0.60677 30.95668,5.66651 43.87001,14.41145 0.33031,0.22454 0.98775,0.68266 1.44327,0.9966 14.30491,10.06134 25.39545,24.64691 31.10933,41.18845 3.87626,11.11436 5.32466,23.05796 4.27004,34.77838 -0.30807,3.82082 -0.90548,7.61889 -1.73051,11.36129 -0.94994,4.30316 -2.23712,8.53005 -3.82763,12.63879 -1.46438,3.77109 -3.20414,7.42923 -5.16276,10.9681 -2.10229,3.70161 -4.4319,7.27635 -7.04668,10.63801 -2.96258,3.87247 -6.31951,7.42639 -9.79923,10.83534 -3.6134,3.41146 -7.50651,6.53265 -11.68134,9.2317 -3.68316,2.42019 -7.58409,4.49999 -11.60921,6.29224 -3.81995,1.66956 -7.76307,3.04828 -11.78817,4.13449 -4.03743,1.06235 -8.15203,1.81203 -12.30105,2.27438 -6.05738,0.6069 -12.19057,0.6383 -18.22601,-0.22564 -2.02396,-0.28703 -4.03525,-0.65713 -6.03286,-1.09064 -0.35552,-0.0904 -1.16834,-0.27712 -1.69897,-0.4044 -16.01844,-3.96228 -30.58604,-12.8493 -42.23488,-24.44 -18.43047,-18.38288 -36.83077,-36.79711 -55.27539,-55.16517 -1.95063,-1.92722 -4.30059,-3.43529 -6.85534,-4.42873 -2.72483,-1.04281 -5.67776,-1.50044 -8.5908,-1.28725 -2.37588,0.1457 -4.70585,0.77114 -6.88564,1.71969 -2.19427,1.02945 -4.24242,2.40296 -5.93632,4.14158 -1.92104,1.99455 -3.40258,4.39104 -4.37402,6.98194 -0.97316,2.7055 -1.40342,5.6139 -1.16629,8.48443 0.16441,2.36586 0.80198,4.6823 1.75788,6.84908 1.14506,2.46501 2.80299,4.66042 4.76214,6.53726 18.33203,18.43103 36.63886,36.88775 54.98661,55.30274 17.37367,16.94056 39.22723,29.53345 62.97919,34.86017 9.40795,2.1088 19.08962,3.06277 28.72718,2.6198 3.6251,-0.14828 7.24235,-0.46549 10.84131,-0.92697 3.59735,-0.46597 7.17193,-1.10292 10.7149,-1.88277 3.54148,-0.78755 7.0449,-1.74102 10.50509,-2.83237 3.45882,-1.09556 6.8641,-2.35759 10.21332,-3.75358 3.31479,-1.39029 6.56734,-2.92762 9.7486,-4.6019 3.24137,-1.70112 6.39475,-3.567 9.47285,-5.54845 3.0766,-1.98595 6.05004,-4.12883 8.94039,-6.37733 2.85387,-2.2393 5.60319,-4.60997 8.25504,-7.08559 5.52663,-5.217 10.68345,-10.83916 15.23561,-16.92815 13.43343,-17.83901 22.00155,-39.29002 24.53965,-61.47661 2.65729,-22.62704 -1.00123,-45.97959 -10.59786,-66.65506 -10.01581,-21.7578 -26.4887,-40.47411 -46.78639,-53.18957 -17.70347,-11.16175 -38.29212,-17.67219 -59.1908,-18.75223 -2.73994,-0.1526 -5.48554,-0.20077 -8.22964,-0.17658 z"
     sodipodi:nodetypes="scccccccccccccccccccccccccccccccccccccccccccccccccccss" />
  <path
     id="path837"
     style="stroke-width:0.5"
     d="m 185.49434,177.05682 c -17.80998,0.32845 -35.51161,5.36302 -50.79487,14.52226 -17.79293,10.57088 -32.27636,26.62718 -40.89226,45.45059 -7.746149,16.73644 -10.711996,35.60303 -8.682156,53.92019 1.921255,17.91418 8.718395,35.26258 19.440486,49.73886 11.77022,15.98941 28.26645,28.45512 46.89297,35.34361 12.01126,4.4816 24.86895,6.59481 37.67998,6.39558 h 51.06659 c -6.70174,-4.09466 -13.37731,-8.24043 -19.80385,-12.75976 -6.48275,-4.51078 -12.92785,-9.36087 -18.90966,-14.61382 -4.00382,-3.56313 -7.89806,-7.30457 -11.12047,-11.60493 -1.83226,-2.08347 -0.25361,-1.55068 -6.14595,-1.69708 -14.63936,-0.93011 -28.75482,-7.33758 -39.38943,-17.38965 -2.66313,-2.50041 -5.10739,-5.23085 -7.3238,-8.13398 -0.21124,-0.2982 -0.66648,-0.89388 -0.96981,-1.31605 -8.01118,-11.06275 -12.40737,-24.80244 -11.78313,-38.4854 0.1319,-4.30559 0.76733,-8.59251 1.80382,-12.77143 1.09313,-4.31449 2.6413,-8.51209 4.63383,-12.49258 2.15709,-4.31748 4.82016,-8.38487 7.93427,-12.07381 8.90442,-10.83191 21.64543,-18.39809 35.39346,-21.12408 0.76013,-0.15509 1.57011,-0.30095 2.2069,-0.40052 14.21607,-2.37793 29.22849,0.3651 41.65231,7.68401 3.33364,1.97645 6.54422,4.20174 9.42273,6.79994 13.66413,14.05476 27.31353,28.12522 40.98687,42.17016 2.0176,1.87962 4.39264,3.37348 6.99096,4.30701 2.74793,0.98997 5.71219,1.37464 8.62235,1.10287 2.94321,-0.26482 5.81536,-1.20692 8.36153,-2.70584 2.50941,-1.49545 4.6846,-3.53915 6.33515,-5.95101 1.63421,-2.42101 2.7391,-5.19305 3.2089,-8.07787 0.45544,-2.88588 0.27652,-5.86466 -0.52308,-8.67596 -0.8114,-2.80625 -2.23759,-5.42871 -4.1552,-7.63423 -5.88787,-6.11143 -11.85803,-12.14965 -17.77757,-18.23291 -8.29234,-8.47245 -16.55485,-16.97563 -24.86577,-25.42894 -2.36321,-2.0458 -4.7765,-4.02913 -7.28855,-5.89025 -3.0197,-2.20399 -6.14561,-4.26422 -9.37747,-6.1441 -3.59661,-2.06669 -7.29742,-3.95553 -11.12209,-5.56448 -3.31275,-1.44804 -6.72413,-2.66117 -10.17341,-3.74135 -3.60653,-1.1068 -7.27547,-2.00784 -10.97862,-2.72635 -3.52324,-0.63955 -7.07006,-1.16808 -10.64163,-1.43931 -3.2967,-0.28408 -6.60603,-0.39043 -9.91433,-0.35939 z"
     sodipodi:nodetypes="cccccccccccccccccccccccccccccccccccccccc" />
  <path
     id="path839"
     style="stroke-width:0.5"
     d="M 461.27148,6.0078125 C 324.08442,6.0143686 186.89718,6.0077268 49.710218,6.0225324 38.701535,6.1928316 27.790818,10.579388 19.844055,18.222779 11.666813,25.930238 6.6236268,36.848318 6.0927176,48.075795 c -0.1539163,5.542612 -0.057637,11.090431 -0.086127,16.635142 0.00462,133.932633 -0.00685,267.865473 0.023736,401.797973 0.2146365,12.67064 6.1497669,25.1489 15.9631599,33.19399 1.222373,1.03352 2.706766,2.11022 3.912764,2.91429 2.948242,1.953 6.130069,3.5518 9.455078,4.75586 0.657745,0.22911 1.587365,0.55281 2.369019,0.77986 1.939979,0.59216 4.125028,1.04771 6.005981,1.32951 5.311147,0.8137 10.69826,0.4491 16.047656,0.53097 134.787996,-0.009 269.576136,-8.3e-4 404.364046,-0.02 4.58482,0.0716 9.19486,-0.39973 13.60368,-1.6954 6.56049,-1.87023 12.68549,-5.26177 17.73657,-9.84879 0.30935,-0.29308 0.90076,-0.83419 1.30244,-1.23702 7.79999,-7.69249 12.63612,-18.34508 13.12912,-29.30324 0.19909,-4.97014 0.0475,-9.94723 0.0877,-14.92028 -0.001,-134.45934 0.007,-268.91884 -0.0185,-403.378068 C 509.81735,39.276914 505.91419,29.046488 499.09499,21.27146 492.83487,14.035719 484.15432,8.9510596 474.79688,6.9765625 474.17371,6.8463853 473.23291,6.6728396 472.48057,6.5599413 468.77307,5.9795135 465.01408,5.9763918 461.27148,6.0078125 Z M 305.40625,111.00781 c 17.8326,-0.0448 35.68222,3.14884 52.33476,9.54756 21.9355,8.37127 41.74558,22.21304 57.16516,39.9171 17.50989,19.97815 29.55692,44.6956 34.46194,70.80765 2.89786,15.19157 3.43313,30.85223 1.30526,46.18053 -3.09367,22.93785 -11.66749,45.12311 -24.88895,64.12713 -13.07029,18.89448 -30.57611,34.71092 -50.76215,45.69571 -20.75848,11.34184 -44.32414,17.50746 -67.98303,17.70228 -7.24296,0.0645 -14.4866,-0.008 -21.72986,0.0223 -32.82124,-0.009 -65.64297,0.0304 -98.46389,-0.0481 -25.56127,-0.49405 -50.89701,-9.1642 -71.37406,-24.47767 C 93.31679,363.9845 76.873507,340.05356 69.200234,313.53513 65.047082,299.24344 63.253818,284.21504 64.369069,269.35689 67.2153,233.38113 86.126155,199.01028 114.99978,177.35844 c 16.48945,-12.44829 36.26237,-20.40617 56.72012,-23.16341 9.92152,-1.34827 20.00123,-1.54281 29.96174,-0.50167 18.04175,-18.38509 41.43608,-31.10989 66.24365,-37.71152 12.21761,-3.22967 24.84023,-4.94592 37.48096,-4.97403 z" />
</svg>
