<?xml version="1.0" encoding="UTF-8" standalone="no"?>
<svg
   id="greyscale"
   width="1024"
   height="1024"
   viewBox="0 0 1024 1024"
   version="1.1"
   sodipodi:docname="creativeCloud.svg"
   inkscape:version="1.1.2 (b8e25be833, 2022-02-05)"
   xmlns:inkscape="http://www.inkscape.org/namespaces/inkscape"
   xmlns:sodipodi="http://sodipodi.sourceforge.net/DTD/sodipodi-0.dtd"
   xmlns="http://www.w3.org/2000/svg"
   xmlns:svg="http://www.w3.org/2000/svg">
  <defs
     id="defs844" />
  <sodipodi:namedview
     id="namedview842"
     pagecolor="#ffffff"
     bordercolor="#666666"
     borderopacity="1.0"
     inkscape:pageshadow="2"
     inkscape:pageopacity="0.0"
     inkscape:pagecheckerboard="0"
     showgrid="false"
     inkscape:zoom="0.79882812"
     inkscape:cx="511.37408"
     inkscape:cy="512"
     inkscape:window-width="1920"
     inkscape:window-height="1027"
     inkscape:window-x="-8"
     inkscape:window-y="-8"
     inkscape:window-maximized="1"
     inkscape:current-layer="greyscale" />
  <path
     d="m 603.12191,283.66173 c -57.75724,0 -110.04958,19.09468 -152.16366,58.45311 h -0.38969 c 1.16906,0.38969 3.89688,1.55875 5.85459,2.33812 8.19271,3.50719 22.26785,10.13188 26.90699,12.85041 4.63914,2.33812 10.14115,5.45562 15.21637,8.57312 8.19271,5.06594 15.60605,9.74219 15.99574,10.13188 27.31523,-19.09469 55.02943,-25.7101 88.58894,-25.7101 88.14358,0.38969 159.99452,71.69321 159.99452,159.75329 A 164.65222,164.65222 0 0 1 716.29827,625.00008 154.01932,154.01932 0 0 1 603.91056,673.711 c -39.80378,0 -81.16632,-18.31531 -113.55677,-50.65936 L 388.48764,521.3525 a 33.494562,33.494562 0 0 0 -47.21712,-0.77938 33.605901,33.605901 0 0 0 -0.38969,47.15218 l 102.24656,102.8682 c 44.86972,44.42437 103.40634,70.13446 160.77389,70.13446 A 223.11461,223.11461 0 0 0 763.89581,672.15225 231.21454,231.21454 0 0 0 829.84577,510.05156 C 829.45608,384.97118 728.38786,283.66173 603.12191,283.66173 Z"
     id="path835"
     style="stroke-width:0.927827" />
  <path
     d="m 397.87725,671.76257 v -0.38969 h -15.21636 c -65.94996,0 -121.75877,-55.33562 -121.75877,-120.79382 a 117.83405,117.83405 0 0 1 28.86471,-77.5478 c 42.92128,-49.87999 118.23302,-55.33562 168.18724,-12.47 l 76.48079,78.70758 a 33.401779,33.401779 0 0 0 48.00578,-46.39136 l -77.65914,-79.48696 -0.77937,-0.77937 A 186.49327,186.49327 0 0 0 379.90524,365.45897 c -103.01665,0.80721 -186.14997,84.20032 -186.14997,186.67883 0,103.25789 83.50445,187.03141 186.92007,187.03141 h 100.29812 c 0,0 -61.26443,-36.96463 -83.09621,-67.40664 z"
     id="path837"
     style="stroke-width:0.927827" />
  <path
     d="M 897.28025,36.952471 H 126.71975 A 89.767282,89.767282 0 0 0 36.952471,126.71975 v 770.5605 a 89.767282,89.767282 0 0 0 89.767279,89.76728 h 770.5605 a 89.767282,89.767282 0 0 0 89.76728,-89.76728 V 126.71975 A 89.767282,89.767282 0 0 0 897.28025,36.952471 Z M 599.99513,777.35858 H 384.98046 A 222.45585,222.45585 0 0 1 222.61069,707.22412 232.41144,232.41144 0 0 1 159.42566,549.79968 c 0,-108.31455 86.28793,-225.22078 225.5548,-225.22078 8.19271,0 16.77511,0.77938 25.36679,1.55875 46.43775,-49.10061 118.63199,-79.49623 189.64788,-79.49623 a 260.26481,260.26481 0 0 1 191.99529,83.00342 270.92554,270.92554 0 0 1 72.58392,181.57579 c 0,146.51319 -118.63199,266.13795 -264.57921,266.13795 z"
     id="path839"
     style="stroke-width:0.927827" />
</svg>
