<?xml version="1.0" encoding="UTF-8" standalone="no"?>
<svg
   id="greyscale"
   width="512"
   height="512"
   viewBox="0 0 512 512"
   version="1.1"
   sodipodi:docname="creativeCloud.svg"
   inkscape:version="1.1.2 (b8e25be833, 2022-02-05)"
   xmlns:inkscape="http://www.inkscape.org/namespaces/inkscape"
   xmlns:sodipodi="http://sodipodi.sourceforge.net/DTD/sodipodi-0.dtd"
   xmlns="http://www.w3.org/2000/svg"
   xmlns:svg="http://www.w3.org/2000/svg">
  <defs
     id="defs844" />
  <sodipodi:namedview
     id="namedview842"
     pagecolor="#ffffff"
     bordercolor="#666666"
     borderopacity="1.0"
     inkscape:pageshadow="2"
     inkscape:pageopacity="0.0"
     inkscape:pagecheckerboard="0"
     showgrid="false"
     inkscape:zoom="1.5976563"
     inkscape:cx="256.31296"
     inkscape:cy="256"
     inkscape:window-width="1920"
     inkscape:window-height="1027"
     inkscape:window-x="-8"
     inkscape:window-y="-8"
     inkscape:window-maximized="1"
     inkscape:current-layer="greyscale"
     showguides="true"
     inkscape:guide-bbox="true"
     inkscape:snap-global="false">
    <sodipodi:guide
       position="0,444.40098"
       orientation="-1,0"
       id="guide916"
       inkscape:label=""
       inkscape:locked="false"
       inkscape:color="rgb(0,0,255)" />
    <sodipodi:guide
       position="-25.662592,512"
       orientation="0,1"
       id="guide918"
       inkscape:label=""
       inkscape:locked="false"
       inkscape:color="rgb(0,0,255)" />
  </sodipodi:namedview>
  <path
     id="path839"
     style="stroke-width:0.507296"
     d="M 462.22339,0.31889362 C 323.03457,0.32554539 183.84556,0.31880667 44.656831,0.33382831 33.487515,0.50661242 22.417595,4.9571751 14.354877,12.712094 6.0583173,20.532016 0.94154359,31.609407 0.40288765,43.00071 c -0.15616217,5.623486 -0.058478,11.252256 -0.0873837,16.877873 0.004687,135.886907 -0.00695,271.774027 0.0240823,407.660797 0.21776836,12.85552 6.23950125,25.51586 16.19608575,33.67834 1.24021,1.0486 2.746262,2.14101 3.969857,2.95681 2.991262,1.9815 6.219516,3.60363 9.593041,4.82526 0.667342,0.23245 1.610527,0.56087 2.403586,0.79124 1.968288,0.6008 4.185219,1.06299 6.093617,1.34891 5.388645,0.82557 10.854364,0.45565 16.281816,0.53871 136.754761,-0.009 273.509661,-8.4e-4 410.264321,-0.0203 4.65172,0.0727 9.32903,-0.40556 13.80218,-1.72014 6.65621,-1.89752 12.87059,-5.33854 17.99537,-9.99249 0.31386,-0.29736 0.9139,-0.84637 1.32144,-1.25507 7.91381,-7.80474 12.8205,-18.61277 13.3207,-29.73082 0.20199,-5.04266 0.0482,-10.09238 0.089,-15.13799 -10e-4,-136.4213 0.007,-272.84276 -0.0188,-409.263948 C 511.47761,34.07344 507.5175,23.693737 500.5988,15.80526 494.24733,8.4639389 485.44012,3.305087 475.94614,1.3017791 475.31388,1.1697024 474.35935,0.99362445 473.59603,0.8790788 469.83444,0.2901817 466.0206,0.28701445 462.22339,0.31889362 Z M 304.08385,106.851 c 18.09281,-0.0455 36.20288,3.19478 53.0984,9.68687 22.25558,8.49342 42.35471,22.53716 57.99929,40.49955 17.76538,20.26966 29.9882,45.34777 34.96479,71.84084 2.94014,15.41323 3.48322,31.3024 1.3243,46.85437 -3.13881,23.27254 -11.83773,45.78152 -25.25211,65.06284 -13.26101,19.17017 -31.02226,35.2174 -51.50285,46.36247 -21.06137,11.50734 -44.97089,17.76292 -68.975,17.96059 -7.34864,0.0654 -14.69798,-0.008 -22.04693,0.0226 -33.30015,-0.009 -66.6008,0.0309 -99.90062,-0.0488 -25.93425,-0.50126 -51.63967,-9.29792 -72.41551,-24.83484 -22.477923,-16.73852 -39.161137,-41.01865 -46.946375,-67.92402 -4.213752,-14.50023 -6.033183,-29.74792 -4.901658,-44.82287 2.887761,-36.5007 22.074553,-71.37307 51.369493,-93.34084 16.73006,-12.62993 36.79149,-20.70393 57.54775,-23.5014 10.06629,-1.36794 20.29308,-1.56532 30.39893,-0.50899 18.305,-18.65336 42.04069,-31.56383 67.21024,-38.26179 12.39588,-3.27679 25.20269,-5.01808 38.02786,-5.0466 z m -121.6616,67.01276 c -18.06985,0.33324 -36.02977,5.44127 -51.53604,14.73416 -18.05255,10.72512 -32.747323,27.01571 -41.488947,46.11378 -7.859176,16.98065 -10.868299,36.12253 -8.808841,54.70696 1.949289,18.17558 8.845609,35.77712 19.724158,50.46463 11.94197,16.22272 28.6789,28.87032 47.57721,35.85932 12.18652,4.547 25.23182,6.69104 38.22979,6.4889 h 51.81172 c -6.79953,-4.1544 -13.5725,-8.36067 -20.09281,-12.94594 -6.57735,-4.5766 -13.11649,-9.49746 -19.18558,-14.82706 -4.06225,-3.61512 -8.01331,-7.41115 -11.28274,-11.77426 -1.85899,-2.11387 -0.25731,-1.57331 -6.23563,-1.72184 -14.85297,-0.94368 -29.17439,-7.44465 -39.96418,-17.64339 -2.70199,-2.5369 -5.18191,-5.30718 -7.43066,-8.25267 -0.21432,-0.30255 -0.67621,-0.90692 -0.98396,-1.33525 -8.12808,-11.22417 -12.58841,-25.16435 -11.95507,-39.04696 0.13383,-4.36842 0.77853,-8.71789 1.83014,-12.95779 1.10909,-4.37744 2.67985,-8.63629 4.70145,-12.67486 2.18856,-4.38048 4.89049,-8.50722 8.05004,-12.24999 9.03435,-10.98996 21.96127,-18.66654 35.9099,-21.43231 0.77123,-0.15735 1.59302,-0.30534 2.23911,-0.40636 14.4235,-2.41263 29.65497,0.37043 42.26007,7.79613 3.38229,2.00529 6.63971,4.26305 9.56023,6.89916 13.86351,14.25984 27.71207,28.53561 41.58493,42.78549 2.04703,1.90704 4.45673,3.4227 7.09296,4.36985 2.78803,1.00442 5.79554,1.3947 8.74817,1.11896 2.98615,-0.26868 5.90021,-1.22453 8.48353,-2.74532 2.54603,-1.51727 4.75296,-3.59079 6.42759,-6.03784 1.65806,-2.45634 2.77907,-5.26883 3.25573,-8.19574 0.46208,-2.92799 0.28055,-5.95023 -0.53072,-8.80256 -0.82324,-2.84719 -2.27024,-5.50792 -4.21583,-7.74562 -5.97378,-6.2006 -12.03105,-12.32693 -18.03697,-18.49896 -8.41334,-8.59607 -16.79641,-17.22332 -25.2286,-25.79998 -2.39769,-2.07565 -4.84619,-4.08792 -7.3949,-5.9762 -3.06376,-2.23615 -6.23528,-4.32644 -9.5143,-6.23375 -3.64909,-2.09685 -7.4039,-4.01325 -11.28438,-5.64567 -3.36108,-1.46917 -6.82224,-2.7 -10.32185,-3.79595 -3.65916,-1.12295 -7.38163,-2.03713 -11.13882,-2.76613 -3.57464,-0.64888 -7.17322,-1.18512 -10.7969,-1.46031 -3.34481,-0.28822 -6.70242,-0.39613 -10.059,-0.36463 z M 304.3278,129.12859 c -17.80416,0.15653 -35.66322,3.77611 -51.83327,11.31816 -11.27248,5.22536 -16.58833,7.84819 -25.69826,16.28926 -1.38189,1.3588 -1.75542,2.7182 0.36496,3.97078 5.4998,2.19107 10.85862,4.73032 16.13207,7.41762 3.74061,1.97316 7.4487,4.01299 11.01668,6.28805 2.48986,1.58169 4.96035,3.01578 7.3544,4.71662 0.49207,0.57055 0.99379,0.61355 1.50672,0.0418 7.67266,-5.45511 12.22004,-5.4138 21.40456,-7.5423 8.31409,-1.94827 15.95563,-2.2172 24.47545,-1.93348 15.81273,0.61562 31.40838,5.74919 44.51014,14.62173 0.33513,0.22782 1.00216,0.69262 1.46433,1.01114 14.51364,10.20815 25.76601,25.00655 31.56326,41.78945 3.93282,11.27654 5.40235,23.39441 4.33235,35.28585 -0.31257,3.87657 -0.9187,7.73006 -1.75577,11.52707 -0.9638,4.36595 -2.26976,8.65451 -3.88348,12.82321 -1.48574,3.82611 -3.25089,7.53763 -5.23809,11.12814 -2.13296,3.75562 -4.49657,7.38252 -7.1495,10.79323 -3.00581,3.92898 -6.41172,7.53475 -9.94221,10.99344 -3.66613,3.46124 -7.61605,6.62798 -11.85179,9.36641 -3.73691,2.4555 -7.69476,4.56565 -11.77861,6.38405 -3.87569,1.69392 -7.87634,3.09276 -11.96017,4.19482 -4.09635,1.07785 -8.27099,1.83847 -12.48055,2.30757 -6.14576,0.61575 -12.36844,0.64761 -18.49195,-0.22894 -2.05349,-0.29121 -4.09413,-0.66671 -6.12089,-1.10655 -0.36071,-0.0917 -1.18539,-0.28116 -1.72376,-0.4103 -16.25217,-4.0201 -31.03233,-13.03679 -42.85115,-24.79662 -18.6994,-18.65111 -37.36818,-37.33403 -56.08194,-55.97011 -1.97909,-1.95534 -4.36334,-3.48541 -6.95537,-4.49335 -2.76459,-1.05803 -5.7606,-1.52233 -8.71615,-1.30603 -2.41055,0.14782 -4.77451,0.78239 -6.98611,1.74478 -2.22629,1.04447 -4.30432,2.43802 -6.02294,4.20201 -1.94907,2.02366 -3.45223,4.45511 -4.43784,7.08382 -0.98736,2.74498 -1.4239,5.69581 -1.18331,8.60823 0.16681,2.40038 0.81368,4.75062 1.78353,6.94902 1.16177,2.50098 2.84389,4.72842 4.83163,6.63265 18.59952,18.69996 37.17347,37.42599 55.78894,56.10968 17.62718,17.18775 39.79961,29.96439 63.89815,35.36884 9.54523,2.13957 19.36817,3.10746 29.14635,2.65802 3.678,-0.15044 7.34803,-0.47228 10.9995,-0.94049 3.64984,-0.47277 7.27658,-1.11902 10.87125,-1.91025 3.59315,-0.79904 7.14769,-1.76642 10.65837,-2.87369 3.50929,-1.11155 6.96426,-2.392 10.36235,-3.80835 3.36316,-1.41058 6.66317,-2.97034 9.89085,-4.66905 3.28866,-1.72594 6.48806,-3.61905 9.61107,-5.62941 3.12149,-2.01493 6.13832,-4.18908 9.07084,-6.47039 2.89552,-2.27197 5.68495,-4.67723 8.3755,-7.18898 5.60727,-5.29312 10.83933,-10.99732 15.45792,-17.17515 13.62944,-18.09931 22.32258,-39.86332 24.89772,-62.37365 2.69606,-22.9572 -1.01584,-46.6505 -10.7525,-67.62765 -10.16196,-22.07528 -26.87521,-41.06469 -47.46907,-53.96569 -17.96179,-11.32461 -38.85086,-17.93005 -60.05449,-19.02585 -2.77992,-0.15483 -5.56558,-0.2037 -8.34972,-0.17916 z" />
</svg>
