<svg id="Layer_1" data-name="Layer 1" xmlns="http://www.w3.org/2000/svg" width="512" height="131.64" viewBox="0 0 512 131.64">
  <defs>
    <style>
      .cls-1 {
        fill: #000000;
      }

      .cls-2 {
        fill: #363636;
      }
    </style>
  </defs>
  <path class="cls-1" d="M0,13.47,13.47,0h53.9V13.47H20.21l-6.74,6.74V40.42h53.9V53.89H0Z" transform="translate(0 0)"/>
  <path class="cls-1" d="M101.05,53.89V30.32L74.11,0H92.58l15.21,16.84L122.79,0h18.68L114.53,30.32V53.89Z" transform="translate(0 0)"/>
  <path class="cls-1" d="M148.21,53.89V0h67.37V53.89ZM202.1,20.21V13.47H161.68v6.74Zm0,20.21V33.68H161.68v6.74Z" transform="translate(0 0)"/>
  <polygon class="cls-1" points="235.79 13.47 235.79 20.21 289.68 20.21 289.68 33.68 235.79 33.68 235.79 40.42 289.68 40.42 289.68 53.89 262.74 53.89 262.74 107.78 249.26 107.78 249.26 53.89 222.32 53.89 222.32 0 289.68 0 289.68 13.47 235.79 13.47"/>
  <path class="cls-1" d="M363.79,13.47,350.32,0h-53.9V107.78h13.47V87.57h40.43v20.21h13.47V53.89L343.58,33.68h20.21ZM346.68,53.89V74.1H309.89V33.68h16.48ZM309.89,20.21V13.47h33.69l6.74,6.74Z" transform="translate(0 0)"/>
  <path class="cls-1" d="M370.53,53.89H384V87.58l6.74,6.74h33.68V53.89h13.47v53.9H384L370.53,94.32Z" transform="translate(0 0)"/>
  <path class="cls-1" d="M444.63,67.37,458.1,53.89H512V67.37H464.84l-6.74,6.74V94.32h40.43V87.58H485.05V74.11H512v33.68H444.63Z" transform="translate(0 0)"/>
  <g>
    <path class="cls-2" d="M320.42,117.42a3.36,3.36,0,0,1,2.83,1.32,5.92,5.92,0,0,1,1,3.7,6,6,0,0,1-1,3.72,3.74,3.74,0,0,1-5.72,0h-.14l-.38,1.16h-1.55V113.64h2.07v3.25c0,.24,0,.6,0,1.07s0,.78-.05.91h.09A3.26,3.26,0,0,1,320.42,117.42Zm-.54,1.69a2.11,2.11,0,0,0-1.8.73,4.32,4.32,0,0,0-.56,2.46v.14a4.51,4.51,0,0,0,.56,2.57,2.09,2.09,0,0,0,1.84.79,1.86,1.86,0,0,0,1.66-.87,4.57,4.57,0,0,0,.57-2.51C322.15,120.21,321.39,119.11,319.88,119.11Z" transform="translate(0 0)"/>
    <path class="cls-2" d="M325.19,117.59h2.25l2,5.52a9.72,9.72,0,0,1,.59,2.21h.07a9.2,9.2,0,0,1,.3-1.17q.21-.69,2.23-6.56h2.23l-4.16,11q-1.12,3-3.78,3a5.9,5.9,0,0,1-1.33-.15v-1.63a4.83,4.83,0,0,0,1.06.1,2.17,2.17,0,0,0,2.1-1.73l.36-.91Z" transform="translate(0 0)"/>
    <path class="cls-2" d="M349.18,127.32l-1.28-3.57H343l-1.26,3.57h-2.21l4.8-12.91h2.29l4.81,12.91Zm-1.83-5.38-1.21-3.5c-.09-.24-.21-.6-.36-1.11s-.26-.87-.32-1.11a19.5,19.5,0,0,1-.7,2.37l-1.16,3.35Z" transform="translate(0 0)"/>
    <path class="cls-2" d="M361.08,127.32H359v-6a2.7,2.7,0,0,0-.42-1.66,1.55,1.55,0,0,0-1.32-.55,2,2,0,0,0-1.75.77,4.52,4.52,0,0,0-.56,2.59v4.85h-2.07v-9.73h1.62l.29,1.28h.11a2.65,2.65,0,0,1,1.17-1.07,3.81,3.81,0,0,1,1.69-.38,3,3,0,0,1,3,1.53h.14a3,3,0,0,1,1.21-1.13,3.88,3.88,0,0,1,1.8-.4,3.24,3.24,0,0,1,2.53.88,3.88,3.88,0,0,1,.8,2.68v6.34h-2.07v-6a2.7,2.7,0,0,0-.42-1.66,1.58,1.58,0,0,0-1.33-.55,2,2,0,0,0-1.76.75,3.89,3.89,0,0,0-.56,2.31Z" transform="translate(0 0)"/>
    <path class="cls-2" d="M375.07,117.42a3.36,3.36,0,0,1,2.83,1.32,5.92,5.92,0,0,1,1,3.7,6,6,0,0,1-1,3.72,3.74,3.74,0,0,1-5.72,0H372l-.38,1.16H370.1V113.64h2.07v3.25c0,.24,0,.6,0,1.07s0,.78-.05.91h.09A3.26,3.26,0,0,1,375.07,117.42Zm-.54,1.69a2.11,2.11,0,0,0-1.8.73,4.32,4.32,0,0,0-.56,2.46v.14a4.51,4.51,0,0,0,.56,2.57,2.09,2.09,0,0,0,1.84.79,1.86,1.86,0,0,0,1.66-.87,4.57,4.57,0,0,0,.57-2.51C376.8,120.21,376,119.11,374.53,119.11Z" transform="translate(0 0)"/>
    <path class="cls-2" d="M381.19,115a1.11,1.11,0,0,1,.31-.85,1.17,1.17,0,0,1,.86-.3,1,1,0,0,1,1.15,1.15,1.13,1.13,0,0,1-.3.83,1.14,1.14,0,0,1-.85.3,1.17,1.17,0,0,1-.86-.3A1.09,1.09,0,0,1,381.19,115Zm2.19,12.3h-2.06v-9.73h2.06Z" transform="translate(0 0)"/>
    <path class="cls-2" d="M394.54,117.59v1.14l-1.66.31a2.4,2.4,0,0,1,.38.75,3,3,0,0,1,.15.95,2.94,2.94,0,0,1-1,2.37,4.35,4.35,0,0,1-2.85.86,5.41,5.41,0,0,1-.85-.07,1.16,1.16,0,0,0-.67,1,.53.53,0,0,0,.32.5,2.54,2.54,0,0,0,1.14.17h1.7a3.74,3.74,0,0,1,2.44.69,2.38,2.38,0,0,1,.84,2,2.87,2.87,0,0,1-1.36,2.55,7.16,7.16,0,0,1-3.94.9,5.39,5.39,0,0,1-3-.7,2.28,2.28,0,0,1-1.05-2,2.11,2.11,0,0,1,.57-1.5,3,3,0,0,1,1.58-.85,1.62,1.62,0,0,1-.68-.57,1.41,1.41,0,0,1-.27-.82,1.44,1.44,0,0,1,.31-.92,3.31,3.31,0,0,1,.92-.75,2.69,2.69,0,0,1-1.23-1.06,3.14,3.14,0,0,1-.47-1.72,3.07,3.07,0,0,1,1-2.45,4.18,4.18,0,0,1,2.84-.87,6.58,6.58,0,0,1,.87.06,4.56,4.56,0,0,1,.68.11Zm-7.63,11.24a1.14,1.14,0,0,0,.6,1,3.29,3.29,0,0,0,1.69.36,5.1,5.1,0,0,0,2.51-.49,1.45,1.45,0,0,0,.83-1.28,1,1,0,0,0-.45-.9,3.64,3.64,0,0,0-1.69-.27h-1.56a2.19,2.19,0,0,0-1.41.42A1.36,1.36,0,0,0,386.91,128.83Zm.88-8.09a2,2,0,0,0,.47,1.41,1.79,1.79,0,0,0,1.35.49q1.8,0,1.8-1.92a2.14,2.14,0,0,0-.45-1.46,1.68,1.68,0,0,0-1.35-.51,1.72,1.72,0,0,0-1.35.51A2.12,2.12,0,0,0,387.79,120.74Z" transform="translate(0 0)"/>
    <path class="cls-2" d="M403.2,127.32l-.29-1.28h-.1a2.91,2.91,0,0,1-1.23,1.06,4.09,4.09,0,0,1-1.82.39,3.54,3.54,0,0,1-2.63-.88,3.63,3.63,0,0,1-.87-2.66v-6.36h2.08v6a2.56,2.56,0,0,0,.46,1.67,1.71,1.71,0,0,0,1.43.56,2.26,2.26,0,0,0,1.91-.78,4.25,4.25,0,0,0,.61-2.6v-4.85h2.08v9.73Z" transform="translate(0 0)"/>
    <path class="cls-2" d="M416.39,122.44a5.3,5.3,0,0,1-1.22,3.72,4.37,4.37,0,0,1-3.4,1.33,4.67,4.67,0,0,1-2.41-.61,4.13,4.13,0,0,1-1.61-1.77,6.1,6.1,0,0,1-.56-2.67,5.29,5.29,0,0,1,1.21-3.69,4.39,4.39,0,0,1,3.42-1.33,4.26,4.26,0,0,1,3.34,1.36A5.23,5.23,0,0,1,416.39,122.44Zm-7.07,0q0,3.36,2.49,3.36t2.46-3.36c0-2.22-.83-3.33-2.48-3.33a2.11,2.11,0,0,0-1.89.86A4.38,4.38,0,0,0,409.32,122.44Z" transform="translate(0 0)"/>
    <path class="cls-2" d="M425.62,127.32l-.29-1.28h-.1A2.91,2.91,0,0,1,424,127.1a4,4,0,0,1-1.81.39,3.55,3.55,0,0,1-2.64-.88,3.63,3.63,0,0,1-.87-2.66v-6.36h2.08v6a2.56,2.56,0,0,0,.46,1.67,1.71,1.71,0,0,0,1.43.56,2.26,2.26,0,0,0,1.91-.78,4.25,4.25,0,0,0,.61-2.6v-4.85h2.08v9.73Z" transform="translate(0 0)"/>
    <path class="cls-2" d="M436.72,124.55a2.54,2.54,0,0,1-1,2.18,5,5,0,0,1-3,.76,6.94,6.94,0,0,1-3.12-.59v-1.78a7.66,7.66,0,0,0,3.2.79c1.27,0,1.9-.38,1.9-1.15a.93.93,0,0,0-.21-.62,2.67,2.67,0,0,0-.69-.51,13.12,13.12,0,0,0-1.35-.59,6.23,6.23,0,0,1-2.27-1.31,2.41,2.41,0,0,1-.59-1.68,2.22,2.22,0,0,1,1-1.94,4.79,4.79,0,0,1,2.74-.69,7.79,7.79,0,0,1,3.24.69l-.66,1.56a7.29,7.29,0,0,0-2.65-.65c-1.09,0-1.63.31-1.63.93a.93.93,0,0,0,.42.77,9.85,9.85,0,0,0,1.86.87,8.31,8.31,0,0,1,1.75.86,2.53,2.53,0,0,1,.81.89A2.67,2.67,0,0,1,436.72,124.55Z" transform="translate(0 0)"/>
    <path class="cls-2" d="M447.68,118.35a3.76,3.76,0,0,1-1.32,3.09,5.82,5.82,0,0,1-3.75,1.07h-1.33v4.81h-2.11V114.47h3.71a5.56,5.56,0,0,1,3.6,1A3.53,3.53,0,0,1,447.68,118.35Zm-6.4,2.39h1.11a4,4,0,0,0,2.37-.56,2,2,0,0,0,.76-1.76,2,2,0,0,0-.68-1.65,3.35,3.35,0,0,0-2.11-.55h-1.45Z" transform="translate(0 0)"/>
    <path class="cls-2" d="M458.58,127.32h-2.07v-6a2.57,2.57,0,0,0-.46-1.68,1.74,1.74,0,0,0-1.43-.55,2.29,2.29,0,0,0-1.91.77,4.27,4.27,0,0,0-.62,2.61v4.83H450V113.64h2.06v3.47a16.37,16.37,0,0,1-.1,1.79h.13a2.8,2.8,0,0,1,1.17-1.09,3.77,3.77,0,0,1,1.76-.39q3.52,0,3.53,3.56Z" transform="translate(0 0)"/>
    <path class="cls-2" d="M470.08,122.44a5.34,5.34,0,0,1-1.22,3.72,4.39,4.39,0,0,1-3.41,1.33,4.63,4.63,0,0,1-2.4-.61,4,4,0,0,1-1.61-1.77,6,6,0,0,1-.56-2.67,5.24,5.24,0,0,1,1.21-3.69,4.39,4.39,0,0,1,3.42-1.33,4.28,4.28,0,0,1,3.34,1.36A5.23,5.23,0,0,1,470.08,122.44Zm-7.08,0q0,3.36,2.49,3.36t2.46-3.36c0-2.22-.83-3.33-2.48-3.33a2.09,2.09,0,0,0-1.88.86A4.37,4.37,0,0,0,463,122.44Z" transform="translate(0 0)"/>
    <path class="cls-2" d="M476.7,127.49a4.7,4.7,0,0,1-3.55-1.32,5,5,0,0,1-1.28-3.64,5.53,5.53,0,0,1,1.19-3.75,4.08,4.08,0,0,1,3.26-1.36,4,4,0,0,1,3,1.17,4.47,4.47,0,0,1,1.11,3.21v1.12H474a3.22,3.22,0,0,0,.76,2.18,2.69,2.69,0,0,0,2,.76,7.44,7.44,0,0,0,3.2-.71v1.68a6.26,6.26,0,0,1-1.53.51A9.24,9.24,0,0,1,476.7,127.49Zm-.38-8.51a2.07,2.07,0,0,0-1.58.63,3,3,0,0,0-.71,1.82h4.41a2.67,2.67,0,0,0-.58-1.83A2,2,0,0,0,476.32,119Z" transform="translate(0 0)"/>
    <path class="cls-2" d="M491.37,127.32H489.3v-6a2.63,2.63,0,0,0-.45-1.68,1.76,1.76,0,0,0-1.44-.55,2.29,2.29,0,0,0-1.92.77,4.31,4.31,0,0,0-.6,2.59v4.85h-2.07v-9.73h1.62l.29,1.28h.1a2.92,2.92,0,0,1,1.25-1.07,4.24,4.24,0,0,1,1.8-.38q3.5,0,3.49,3.56Z" transform="translate(0 0)"/>
    <path class="cls-2" d="M494.12,115a1.15,1.15,0,0,1,.31-.85,1.17,1.17,0,0,1,.86-.3,1,1,0,0,1,1.15,1.15,1.13,1.13,0,0,1-.3.83,1.14,1.14,0,0,1-.85.3,1.17,1.17,0,0,1-.86-.3A1.13,1.13,0,0,1,494.12,115Zm2.19,12.3h-2.06v-9.73h2.06Z" transform="translate(0 0)"/>
    <path class="cls-2" d="M501.43,122.35l-3.26-4.76h2.35l2.22,3.41,2.23-3.41h2.34L504,122.35l3.43,5h-2.33l-2.4-3.64-2.39,3.64H498Z" transform="translate(0 0)"/>
  </g>
</svg>
