<svg id="Layer_3" data-name="Layer 3" xmlns="http://www.w3.org/2000/svg" viewBox="0 0 1024 1024"><defs><style>.cls-1{fill:#00c8f2;}.cls-2{fill:#06e875;}.cls-3{fill:#ffd900;}.cls-4{fill:#f3324a;}</style></defs><path class="cls-1" d="M938.1,582.22,750.65,686.75,164.12,1013.82A80.45,80.45,0,0,1,44.71,943.43V80.57a79.51,79.51,0,0,1,34-65.71c23.83-16.77,56.46-20.75,85.48-4.63L752.6,338.35,938.1,441.79C993,472.48,993,551.52,938.1,582.22Z"/><path class="cls-2" d="M752.6,338.35,577.43,513.53,78.75,14.86c23.83-16.77,56.46-20.75,85.48-4.63Z"/><path class="cls-3" d="M938.1,582.22,750.65,686.75,577.43,513.53,752.6,338.35,938.1,441.79C993,472.48,993,551.52,938.1,582.22Z"/><path class="cls-4" d="M750.65,686.75,164.12,1013.82a79.81,79.81,0,0,1-83.55-3.43L577.43,513.53Z"/></svg>