<svg id="color" xmlns="http://www.w3.org/2000/svg" xmlns:xlink="http://www.w3.org/1999/xlink" width="1024" height="1024" viewBox="0 0 1024 1024"><defs><linearGradient id="linear-gradient" x1="1117.43" y1="729.89" x2="1168.95" y2="1022.07" gradientTransform="matrix(-1, 0, 0, 1, 1442.68, 0)" gradientUnits="userSpaceOnUse"><stop offset="0" stop-color="#ffa42e"/><stop offset="0.33" stop-color="#fea12d"/><stop offset="0.59" stop-color="#fa972b"/><stop offset="0.82" stop-color="#f48628"/><stop offset="1" stop-color="#ed7424"/></linearGradient><linearGradient id="linear-gradient-2" x1="698.75" y1="729.89" x2="750.27" y2="1022.07" gradientTransform="matrix(1, 0, 0, 1, 0, 0)" xlink:href="#linear-gradient"/></defs><g style="opacity:0.01"><path d="M1024,0h0V1024H0V0H1024m0,0H0V1024H1024V0Z"/></g><path id="body_black_2" data-name="body black 2" d="M645,1014.4a276.79,276.79,0,0,1-71.89,9.6H450.86a276.79,276.79,0,0,1-71.89-9.6,140.19,140.19,0,0,0,47.22-62c25,5,53.48,7.65,85.81,7.65s60.79-2.68,85.81-7.65A140.19,140.19,0,0,0,645,1014.4Z"/><path id="body_black" data-name="body black" d="M864,640c8.85,66.35,2.84,125.35-13.86,176-18.27-45.88-49.74-87.94-90.73-102.51C752.72,639,727.3,560.09,704,496c-33.24-91.43,41.8-214.09-165.61-81.26a49,49,0,0,1-52.78,0C278.2,281.91,353.24,404.57,320,496c-23.3,64.09-48.72,143-55.41,217.5-41,14.57-72.46,56.63-90.73,102.51-16.7-50.66-22.71-109.66-13.86-176,0,0-82.4,67.5-64-32,39.26-212.28,160-336,160-336V211.76C256,94.8,368,0,512,0S768,94.8,768,211.76V272S888.74,395.72,928,608C946.4,707.5,864,640,864,640Z"/><path id="body_white" data-name="body white" d="M759.41,713.5a92.16,92.16,0,0,0-31.13-5.43c-85.09,0-139.79,116.83-139.79,194a139.48,139.48,0,0,0,9.32,50.25c-25,5-53.48,7.65-85.81,7.65s-60.79-2.68-85.81-7.65a139.48,139.48,0,0,0,9.32-50.25c0-77.2-54.7-194-139.79-194a92.16,92.16,0,0,0-31.13,5.43C271.28,639,296.7,560.09,320,496c33.24-91.43-41.8-214.09,165.61-81.26a49,49,0,0,0,52.78,0C745.8,281.91,670.76,404.57,704,496,727.3,560.09,752.72,639,759.41,713.5Z" style="fill:#fff"/><circle id="eye" cx="634" cy="218" r="46.26" style="fill:#fff"/><circle id="eye-2" data-name="eye" cx="390" cy="218" r="46.26" style="fill:#fff"/><path id="foot" d="M295.72,726c76,0,124.81,104.32,124.81,173.24a124.81,124.81,0,0,1-249.62,0C170.91,830.27,219.75,726,295.72,726Z" style="fill:url(#linear-gradient)"/><path id="foot-2" data-name="foot" d="M728.28,726c-76,0-124.81,104.32-124.81,173.24a124.81,124.81,0,0,0,249.62,0C853.09,830.27,804.25,726,728.28,726Z" style="fill:url(#linear-gradient-2)"/></svg>