<svg xmlns="http://www.w3.org/2000/svg" xmlns:xlink="http://www.w3.org/1999/xlink" width="512" height="512" viewBox="0 0 512 512"><defs><linearGradient id="linear-gradient" x1="-101.14" y1="358.92" x2="113.57" y2="162.07" gradientUnits="userSpaceOnUse"><stop offset="0" stop-color="#02a7a3"/><stop offset="1" stop-color="#0c7d87"/></linearGradient><linearGradient id="linear-gradient-2" x1="-9.14" y1="396.5" x2="168.75" y2="357.88" gradientUnits="userSpaceOnUse"><stop offset="0" stop-color="#1f636c"/><stop offset="0.17" stop-color="#1c6b72"/><stop offset="0.42" stop-color="#127f84"/><stop offset="0.72" stop-color="#02a1a1"/><stop offset="0.74" stop-color="#01a4a3"/><stop offset="0.82" stop-color="#029fa0"/><stop offset="0.91" stop-color="#069196"/><stop offset="1" stop-color="#0c7d87"/></linearGradient><linearGradient id="linear-gradient-3" x1="153.97" y1="385.81" x2="155.73" y2="17.03" gradientUnits="userSpaceOnUse"><stop offset="0" stop-color="#387f82"/><stop offset="0.08" stop-color="#45898c"/><stop offset="0.35" stop-color="#6aa6aa"/><stop offset="0.61" stop-color="#85bbbf"/><stop offset="0.83" stop-color="#95c8cc"/><stop offset="1" stop-color="#9bccd1"/></linearGradient><linearGradient id="linear-gradient-4" x1="243.47" y1="250.97" x2="505.64" y2="148.25" gradientUnits="userSpaceOnUse"><stop offset="0" stop-color="#0c626a"/><stop offset="0.01" stop-color="#0d646c"/><stop offset="0.17" stop-color="#178187"/><stop offset="0.34" stop-color="#20989c"/><stop offset="0.52" stop-color="#25a8ab"/><stop offset="0.72" stop-color="#29b1b4"/><stop offset="1" stop-color="#2ab4b7"/></linearGradient><linearGradient id="linear-gradient-5" x1="387.41" y1="245.14" x2="387.41" y2="493.25" gradientUnits="userSpaceOnUse"><stop offset="0.03" stop-color="#1a5a63"/><stop offset="0.32" stop-color="#156c72"/><stop offset="0.68" stop-color="#117b7f"/><stop offset="0.98" stop-color="#108084"/></linearGradient><linearGradient id="linear-gradient-6" x1="447.64" y1="503.07" x2="514.64" y2="73.47" gradientUnits="userSpaceOnUse"><stop offset="0" stop-color="#107881"/><stop offset="0.09" stop-color="#278e95"/><stop offset="0.23" stop-color="#42a9ad"/><stop offset="0.37" stop-color="#58bfc0"/><stop offset="0.54" stop-color="#67cdcd"/><stop offset="0.72" stop-color="#70d6d5"/><stop offset="1" stop-color="#73d9d7"/></linearGradient><linearGradient id="linear-gradient-7" x1="511.4" y1="302.38" x2="378.24" y2="212.32" gradientUnits="userSpaceOnUse"><stop offset="0" stop-color="#236570"/><stop offset="0.14" stop-color="#1c737c"/><stop offset="0.48" stop-color="#0e8f95"/><stop offset="0.78" stop-color="#05a1a4"/><stop offset="1" stop-color="#02a7a9"/></linearGradient></defs><g id="_11_maya1" data-name="11 maya1"><path id="letter_2" data-name="letter 2" d="M3.84,495.48V29.87L126.53,251.42S81.39,372.3,3.84,495.48Z" style="fill:url(#linear-gradient)"/><path id="letter_1" data-name="letter 1" d="M3.84,495.48s95.05,7.9,124.21-23.33l-3.77-187.69c.26-13.89,10.59-18,10.59-18l-8.34-15.07S81.58,382.87,3.84,495.48Z" style="fill:url(#linear-gradient-2)"/><polygon id="letter_3" data-name="letter 3" points="3.84 29.87 149.76 15.63 305.7 405.11 212.29 403.09 3.84 29.87" style="fill:url(#linear-gradient-3)"/><polygon id="letter_4" data-name="letter 4" points="355.03 28.73 254.3 273.16 305.7 405.11 507.2 28.73 355.03 28.73" style="fill:url(#linear-gradient-4)"/><path d="M393.2,245.14V493.25l-8.06-19.56v-194s.09-11.06-3.52-13.39Z" style="fill:url(#linear-gradient-5)"/><path d="M508.16,49.27l-3,444H393.2C500.68,261,507,95.38,508.16,49.27Z" style="fill:url(#linear-gradient-6)"/><path d="M508.16,49.27c0,.38,0-.38,0,0-1.17,46.11-13.31,217.69-115,444V245.14l114-216.41S508.16,37.49,508.16,49.27Z" style="fill:url(#linear-gradient-7)"/></g></svg>