<?xml version="1.0" encoding="UTF-8"?>
<svg id="maya2" xmlns="http://www.w3.org/2000/svg" viewBox="0 0 1024 1024">
  <defs>
    <style>
      .cls-1 {
        fill: #37a5cc;
      }

      .cls-2 {
        fill: #fff;
      }

      .cls-3 {
        fill: #7dc6dd;
      }

      .cls-4 {
        fill: #36697f;
      }
    </style>
  </defs>
  <path class="cls-4" d="M91.07,209.77h932.93V978.38H151.29c-33.24,0-60.22-26.99-60.22-60.22V209.77h0Z"/>
  <path class="cls-1" d="M162,46.3H892.47c33.24,0,60.22,26.99,60.22,60.22V814.91H162V46.3h0Z"/>
  <polygon class="cls-3" points="162 814.91 0 914.91 0 146.3 162 46.3 162 814.91"/>
  <polygon class="cls-2" points="606.57 643.56 677.5 378.45 677.5 643.56 770.52 643.56 770.52 217.98 639.13 217.98 556.66 552.86 474.19 217.98 342.79 217.98 342.79 643.56 435.82 643.56 435.82 378.45 506.75 643.56 606.57 643.56"/>
</svg>