<?xml version="1.0" encoding="UTF-8" standalone="no"?>
<svg
   id="bw"
   viewBox="0 0 1024 1024"
   version="1.1"
   sodipodi:docname="realityCapture2.svg"
   inkscape:version="1.1.2 (b8e25be833, 2022-02-05)"
   xmlns:inkscape="http://www.inkscape.org/namespaces/inkscape"
   xmlns:sodipodi="http://sodipodi.sourceforge.net/DTD/sodipodi-0.dtd"
   xmlns="http://www.w3.org/2000/svg"
   xmlns:svg="http://www.w3.org/2000/svg">
  <defs
     id="defs2211" />
  <sodipodi:namedview
     id="namedview2209"
     pagecolor="#ffffff"
     bordercolor="#666666"
     borderopacity="1.0"
     inkscape:pageshadow="2"
     inkscape:pageopacity="0.0"
     inkscape:pagecheckerboard="0"
     showgrid="false"
     inkscape:zoom="0.82128906"
     inkscape:cx="412.15696"
     inkscape:cy="527.21998"
     inkscape:window-width="1920"
     inkscape:window-height="1027"
     inkscape:window-x="-8"
     inkscape:window-y="-8"
     inkscape:window-maximized="1"
     inkscape:current-layer="bw" />
  <path
     id="path2204"
     d="M 505.69727 31.039062 C 498.9508 31.132495 492.20882 31.368304 485.48047 31.748047 C 475.12034 32.333616 464.64098 33.258388 454.33398 34.513672 C 417.32767 39.011129 380.84774 47.816026 345.85938 60.679688 C 338.11937 63.530462 330.33605 66.615875 322.70898 69.878906 C 317.96334 71.901145 313.18574 74.038746 308.49805 76.222656 C 297.57363 81.310114 286.85001 86.815258 276.29883 92.722656 C 270.4765 95.989017 264.64954 99.430908 258.92383 102.94727 C 246.61672 110.56259 234.722 118.66553 223.12305 127.36133 C 221.7136 128.44026 220.12798 129.62076 218.7168 130.71094 C 214.67278 133.82036 210.67325 136.98771 206.73047 140.22461 C 204.90624 152.32473 203.39017 164.47119 202.18359 176.64844 C 201.87267 179.93481 201.54415 183.37884 201.27539 186.73047 C 198.91839 214.97825 198.37828 243.59357 199.99609 271.92578 C 201.8418 304.67902 206.59774 337.33847 214.60742 369.18945 C 216.62135 377.18219 218.89838 385.35283 221.33594 393.23242 C 227.06434 411.8085 234.00706 430.1082 242.14453 447.86328 C 291.67668 379.6882 341.20747 311.51063 390.73828 243.33594 C 391.07827 242.8699 391.4178 242.40547 391.75781 241.93945 C 391.75974 241.93966 391.76174 241.93925 391.76367 241.93945 C 400.05081 228.88438 408.98153 216.23791 418.56055 204.09961 C 446.27368 168.91776 479.02926 137.80862 515.03906 111.22461 C 544.19116 89.693002 575.46996 71.03637 608.26758 55.617188 C 615.63513 52.164764 623.08546 48.884922 630.62695 45.832031 C 609.47583 40.418549 587.9484 36.490397 566.25586 34.029297 C 546.21266 31.762825 525.93665 30.758765 505.69727 31.039062 z M 681.2207 61.787109 C 669.85942 66.251296 658.58431 70.992001 647.43945 76.052734 C 634.354 81.98906 621.33712 88.391107 608.67773 95.1875 C 597.81421 101.01282 587.14754 107.14968 576.64258 113.64648 C 564.33659 121.2746 552.36397 129.29637 540.67188 137.85938 C 516.04571 155.86968 492.87374 176.0601 471.89648 198.34766 C 463.55571 207.20312 455.54594 216.40372 447.91016 225.93555 C 442.6211 232.53898 437.53358 239.31961 432.62305 246.23438 C 517.00076 255.10443 601.3776 263.9748 685.75586 272.83984 C 685.76107 272.85156 685.76627 272.86328 685.77148 272.875 C 725.34433 274.55506 764.66665 281.43145 802.56836 292.90039 C 849.13747 306.96432 893.6384 327.6525 934.79102 353.55469 C 948.64302 362.27717 962.10151 371.63284 975.02539 381.68164 C 973.66071 376.81401 972.17938 371.85525 970.6582 367.0332 C 966.93465 355.25556 962.80916 343.72719 958.1875 332.26758 C 955.8291 326.40914 953.39623 320.72263 950.79883 314.92773 C 944.86653 301.74254 938.39719 288.93126 931.30078 276.32422 C 926.28807 267.43766 920.91494 258.55978 915.30859 249.95703 C 913.25988 246.80634 911.09754 243.57156 908.96484 240.45898 C 906.06031 236.21491 902.9455 231.84108 899.91016 227.69531 C 894.30767 220.06433 888.48951 212.61954 882.47266 205.34766 C 875.91275 197.44043 869.00565 189.6401 861.92383 182.12305 C 858.48566 178.4824 854.90855 174.8014 851.35938 171.26562 C 840.26887 160.22476 828.55745 149.64573 816.50977 139.77734 C 792.69662 120.28277 766.95349 103.01065 739.83008 88.398438 C 721.72107 78.636084 702.87377 69.977173 683.60938 62.617188 C 682.81439 62.367733 682.01101 61.906427 681.2207 61.787109 z M 167.99219 175.77148 C 167.03337 176.75931 166.07406 177.74654 165.11523 178.73438 C 135.94684 209.04854 110.82844 243.24575 90.587891 280.12305 C 85.85728 288.73053 81.353698 297.58396 77.1875 306.4043 C 56.154467 351.01474 41.988611 398.85622 35.388672 447.73438 C 33.997156 457.97256 32.947238 468.25657 32.210938 478.5625 C 30.060339 509.04314 30.819744 539.88407 34.513672 570.27734 C 35.311089 576.82096 36.252426 583.41337 37.320312 589.95312 C 76.195504 621.04062 118.3643 648.25454 163.53516 669.34375 C 206.39681 689.37081 251.97201 703.79455 298.83789 710.70117 C 306.33808 711.80892 313.87247 712.67258 321.41992 713.39062 C 286.94992 635.95716 252.47782 558.52351 218.00391 481.0918 C 218.04501 481.03522 218.08585 480.97845 218.12695 480.92188 C 199.98521 446.12216 186.40344 408.97593 177.41406 370.7832 C 166.64529 325.19256 162.19694 278.17394 163.46484 231.36719 C 163.99646 212.77388 165.41167 194.19562 167.99219 175.77148 z M 702.58789 310.65039 C 737.05184 388.07027 771.51846 465.49008 805.98633 542.9082 C 805.93703 542.97605 805.88718 543.04348 805.83789 543.11133 C 825.62285 581.07609 840.01236 621.80335 848.93359 663.66016 C 858.65603 709.10696 862.24403 755.81797 860.17383 802.23047 C 859.47019 817.60952 858.14071 832.96498 856.00391 848.21289 C 875.86564 827.92554 893.90166 805.85404 909.85156 782.36719 C 914.43838 775.60434 918.9268 768.61086 923.18359 761.57422 C 928.49225 752.82455 933.59061 743.76211 938.32617 734.67383 C 943.69789 724.36958 948.74032 713.76988 953.35352 703.08594 C 972.09367 659.71598 984.44195 613.50662 989.82227 566.5332 C 991.18657 554.76005 992.08962 542.93507 992.58203 531.09375 C 992.74485 526.8906 992.87271 522.5218 992.92773 518.30273 C 993.05066 509.68941 992.94121 501.03867 992.59961 492.5 C 992.28266 484.43753 991.75531 476.4168 991.03125 468.35742 C 990.13471 458.43212 988.917 448.4427 987.39648 438.55469 C 987.16228 437.05091 986.92609 435.54644 986.67773 434.04492 C 981.85427 430.18699 976.90638 426.33966 972.03711 422.63477 C 951.03246 406.70924 929.00405 391.87118 906.20508 378.60742 C 871.78217 358.57529 835.30474 341.9672 797.30469 329.97266 C 793.46773 328.77391 789.41161 327.53584 785.54492 326.43164 C 771.81964 322.47727 757.80157 319.11579 743.72266 316.42969 C 730.13896 313.83458 716.39142 311.96209 702.58789 310.65039 z M 781.81055 576.18359 C 731.95091 644.80866 682.09422 713.43422 632.23633 782.06055 C 632.22138 782.05898 632.20635 782.05821 632.19141 782.05664 C 625.19435 793.08052 617.76899 803.83127 609.83789 814.20312 C 579.18305 854.40252 541.9731 889.43723 500.79102 918.68359 C 471.79464 939.28024 440.82439 957.11623 408.39844 971.73633 C 403.42848 973.97256 398.41705 976.11906 393.36523 978.16406 C 433.99114 988.55277 475.99212 993.52272 517.91992 992.96094 C 520.91361 992.92284 524.02106 992.8522 527.0332 992.75195 C 541.94573 992.27711 556.8352 991.09899 571.63867 989.23828 C 577.66488 988.47772 583.89017 987.57846 589.8457 986.58984 C 605.12995 984.07638 620.36795 980.79959 635.29297 976.8457 C 649.30175 973.12209 663.16091 968.7692 676.81055 963.79492 C 694.06608 957.5124 711.12545 950.16239 727.55273 941.94922 C 742.25925 934.58514 756.59368 926.47966 770.52344 917.61914 C 786.23389 907.63055 801.45995 896.64262 815.96484 884.83008 C 816.35769 884.37892 817.09549 884.14873 817.28516 883.58398 C 820.05113 865.21091 822.12829 846.74372 823.40234 828.27734 C 826.98223 776.80793 824.40833 724.75989 813.83789 674.20117 C 806.81583 640.48736 796.15585 607.49903 781.81055 576.18359 z M 48.960938 642.32812 L 49.273438 643.44922 C 52.041221 653.16897 55.095486 662.80706 58.457031 672.33789 C 59.043811 673.94989 59.687798 675.78551 60.289062 677.41602 C 64.545794 689.03379 69.217863 700.41522 74.363281 711.67578 C 76.551799 716.47042 78.888522 721.36853 81.240234 726.08984 C 84.83955 733.32971 88.636078 740.47124 92.59375 747.52148 C 97.67892 756.54122 103.13271 765.54534 108.82422 774.27344 C 118.97017 789.84003 130.11607 804.9568 142.04688 819.28711 C 148.68025 827.28725 155.70966 835.16098 162.85156 842.71875 C 172.66855 853.07652 182.88073 862.93441 193.58594 872.40625 C 204.313 881.887 215.60665 891.0056 227.16992 899.50977 C 262.49006 925.51397 301.37666 946.67657 342.41992 962.14844 C 343.00171 962.33793 343.57814 961.7813 344.1582 961.65625 C 356.32471 956.85513 368.46637 951.68433 380.38477 946.18555 C 391.95805 940.85735 403.45782 935.13644 414.73633 929.11719 C 419.00627 926.82301 423.40074 924.42038 427.61719 922.02148 C 440.12383 914.9475 452.40279 907.39282 464.31445 899.43164 C 472.8683 893.71535 481.23198 887.77549 489.48242 881.56445 C 497.74093 875.33021 505.92604 868.7762 513.80469 862.06055 C 519.22697 857.42086 524.58555 852.66171 529.74219 847.85156 C 552.54739 826.64499 573.26518 803.15103 591.30469 777.75781 C 507.03532 768.89948 422.76597 760.041 338.49609 751.1875 C 338.34773 751.18117 338.19914 751.18226 338.05078 751.17578 C 293.37329 749.27181 249.05962 740.65049 206.69141 726.41797 C 163.61225 711.97924 122.4636 691.9114 84.277344 667.31836 C 72.157519 659.49514 60.345778 651.18842 48.960938 642.32812 z " />
  <path
     id="path2206"
     d="m 408.23185,282.09829 c -49.27072,67.8167 -98.53944,135.63741 -147.8126,203.45331 34.29663,77.03351 68.59258,154.06735 102.88416,231.10312 83.86195,8.81062 167.72313,17.62863 251.58465,26.44338 C 664.44853,674.88117 714.00779,606.66336 763.57098,538.4484 729.27435,461.41489 694.9784,384.38105 660.68682,307.34528 576.82571,298.53457 492.96531,289.71717 409.10469,280.9019 c -0.29096,0.39879 -0.5819,0.79759 -0.87284,1.19639 z m 205.62035,57.91309 c -36.87728,50.75569 -73.75455,101.51137 -110.63183,152.26707 -62.39182,-6.55964 -124.78363,-13.11929 -187.17545,-19.67892 36.87812,-50.75485 73.75624,-101.50971 110.63434,-152.26455 62.39099,6.5588 124.78195,13.11759 187.17294,19.6764 z m 106.79939,193.91735 c -36.87478,50.75234 -73.74954,101.50468 -110.62432,152.25702 -25.51788,-57.31114 -51.03576,-114.62229 -76.55364,-171.93343 36.87478,-50.75235 73.74954,-101.50469 110.6243,-152.25704 25.51789,57.31115 51.03577,114.62231 76.55366,171.93345 z m -221.35396,-4.46201 c 25.51872,57.31199 51.03743,114.62398 76.55616,171.93596 -62.39601,-6.55965 -124.79201,-13.11928 -187.188,-19.67891 -25.5137,-57.31115 -51.0274,-114.62231 -76.5411,-171.93344 62.39098,6.5588 124.78196,13.1176 187.17294,19.67639 z"
     style="stroke-width:1.28417" />
</svg>
