<?xml version="1.0" encoding="UTF-8"?>
<svg id="color" xmlns="http://www.w3.org/2000/svg" viewBox="0 0 1024 1024">
  <defs>
    <style>
      .cls-1 {
        fill: #fff;
      }

      .cls-2 {
        fill: #6ccaf8;
      }

      .cls-3 {
        fill: #292c30;
      }
    </style>
  </defs>
  <circle class="cls-1" cx="512" cy="512" r="512"/>
  <path class="cls-3" d="M300.67,489.53l73.43,165.13s-211.25-36.68-314.85-322.18h0C118.39,183.44,248.99,70.55,408.75,36.05c0,0-185.31,194.21-108.07,453.47Z"/>
  <path class="cls-3" d="M723.33,534.47l-73.43-165.13s211.25,36.68,314.85,322.18h0c-59.14,149.03-189.74,261.93-349.5,296.42,0,0,185.31-194.21,108.07-453.47Z"/>
  <path class="cls-3" d="M598.42,706.15l106.12-146.27s74.08,201.21-121.1,433.9h0c-158.61,23.48-321.74-32.99-431.63-153.98,0,0,260.91,63.08,446.61-133.65Z"/>
  <path class="cls-3" d="M425.58,317.85l-106.12,146.27S245.37,262.91,440.55,30.22h0c158.61-23.48,321.74,32.99,431.63,153.98,0,0-260.91-63.08-446.61,133.65Z"/>
  <path class="cls-3" d="M636.93,340.08l-179.74-18.77s137.21-164.76,436.31-112.07h0c99.63,125.63,132.29,295.13,82.46,450.8,0,0-75.83-257.5-339.04-319.95Z"/>
  <path class="cls-3" d="M387.07,683.92l179.74,18.77s-137.21,164.76-436.31,112.07h0C30.85,689.14-1.81,519.63,48.02,363.97c0,0,75.83,257.5,339.04,319.95Z"/>
  <path class="cls-2" d="M589.3,685.63l-189.02-19.87-77.3-173.63,111.71-153.76,189.02,19.87,77.3,173.63-111.71,153.76Zm-177.4-35.86l159.53,16.77-65.25-146.54-159.53-16.77,65.24,146.54Zm109.93-136.74l65.25,146.54,94.29-129.77-65.25-146.54-94.29,129.77Zm-173.38-26.83l159.53,16.77,94.29-129.78-159.53-16.77-94.29,129.78Z"/>
</svg>