<?xml version="1.0" encoding="UTF-8"?><svg id="Layer_1" xmlns="http://www.w3.org/2000/svg" viewBox="0 0 1024 1024"><g id="bw"><path id="white_background" d="M917.86,306.48c.62,9,.62,18,.62,27.08,0,276.71-210.65,595.84-595.84,595.84v-.17c-113.79,.17-225.21-32.43-321-93.88,16.55,1.99,33.17,2.99,49.84,3.03,94.3,.08,185.9-31.56,260.08-89.82-89.61-1.7-168.19-60.13-195.64-145.43,31.39,6.05,63.74,4.81,94.55-3.61-97.7-19.74-167.98-105.58-167.98-205.26v-2.65c29.11,16.21,61.7,25.21,95.04,26.21C45.51,356.32,17.15,233.91,72.72,138.2c106.32,130.83,263.19,210.36,431.59,218.78-16.88-72.73,6.18-148.95,60.58-200.08,84.34-79.29,217-75.22,296.28,9.08,46.9-9.25,91.85-26.46,132.99-50.84-15.63,48.48-48.35,89.65-92.06,115.82,41.51-4.89,82.06-16.01,120.26-32.97-28.11,42.13-63.53,78.83-104.5,108.48Z"/></g></svg>