<svg id="colour" xmlns="http://www.w3.org/2000/svg" width="1024" height="1024" viewBox="0 0 1024 1024"><polygon points="512.2 848.32 512.2 1024.2 68.8 768.2 68.8 256.2 221.12 344.14 221.1 650.38 325.88 589.88 326.5 465.48 461.86 541.26 459.8 696.38 351.76 634.72 246.98 695.2 512.2 848.32" style="fill:#4d4d4d"/><polygon points="955.6 256.2 955.6 768.2 512.2 1024.2 512.2 848.32 777.4 695.2 672.64 634.72 564.6 696.38 562.54 541.26 697.9 465.48 698.52 589.88 803.28 650.38 803.28 344.14 955.6 256.2"/><polygon points="538.08 191.02 538.08 312 645.5 374.74 512.2 454.08 378.9 374.74 486.32 312 486.32 191.02 221.12 344.14 68.8 256.2 512.2 0.2 955.6 256.2 803.28 344.14 538.08 191.02" style="fill:gray"/><polygon points="512.2 512.2 512.2 848.32 246.98 695.2 351.76 634.72 459.8 696.38 461.86 541.26 326.5 465.48 325.88 589.88 221.1 650.38 221.12 344.14 512.2 512.2" style="fill:#ebebeb"/><polygon points="697.9 465.48 562.54 541.26 564.6 696.38 672.64 634.72 777.4 695.2 512.2 848.32 512.2 512.2 803.28 344.14 803.28 650.38 698.52 589.88 697.9 465.48" style="fill:#d9d9d9"/><polygon points="803.28 344.14 512.2 512.2 221.12 344.14 486.32 191.02 486.32 312 378.9 374.74 512.2 454.08 645.5 374.74 538.08 312 538.08 191.02 803.28 344.14" style="fill:#fff"/></svg>