<?xml version="1.0" encoding="UTF-8" standalone="no"?>
<svg
   id="greyscale"
   viewBox="0 0 1024 1024"
   version="1.1"
   sodipodi:docname="youtube2.svg"
   inkscape:version="1.1.2 (b8e25be833, 2022-02-05)"
   xmlns:inkscape="http://www.inkscape.org/namespaces/inkscape"
   xmlns:sodipodi="http://sodipodi.sourceforge.net/DTD/sodipodi-0.dtd"
   xmlns="http://www.w3.org/2000/svg"
   xmlns:svg="http://www.w3.org/2000/svg">
  <defs
     id="defs31">
    <inkscape:path-effect
       effect="fillet_chamfer"
       id="path-effect1722"
       is_visible="true"
       lpeversion="1"
       satellites_param="F,0,0,1,0,100,0,1 @ F,0,0,1,0,100,0,1 @ F,0,0,1,0,100,0,1 @ F,0,0,1,0,100,0,1"
       unit="px"
       method="auto"
       mode="F"
       radius="100"
       chamfer_steps="1"
       flexible="false"
       use_knot_distance="true"
       apply_no_radius="true"
       apply_with_radius="true"
       only_selected="false"
       hide_knots="false" />
    <inkscape:path-effect
       effect="fillet_chamfer"
       id="path-effect1722-6"
       is_visible="true"
       lpeversion="1"
       satellites_param="F,0,0,1,0,100,0,1 @ F,0,0,1,0,100,0,1 @ F,0,0,1,0,100,0,1 @ F,0,0,1,0,100,0,1"
       unit="px"
       method="auto"
       mode="F"
       radius="100"
       chamfer_steps="1"
       flexible="false"
       use_knot_distance="true"
       apply_no_radius="true"
       apply_with_radius="true"
       only_selected="false"
       hide_knots="false" />
  </defs>
  <sodipodi:namedview
     id="namedview29"
     pagecolor="#ffffff"
     bordercolor="#666666"
     borderopacity="1.0"
     inkscape:pageshadow="2"
     inkscape:pageopacity="0.0"
     inkscape:pagecheckerboard="0"
     showgrid="false"
     showguides="true"
     inkscape:guide-bbox="true"
     inkscape:zoom="0.79882812"
     inkscape:cx="512"
     inkscape:cy="512"
     inkscape:window-width="1920"
     inkscape:window-height="1027"
     inkscape:window-x="-8"
     inkscape:window-y="-8"
     inkscape:window-maximized="1"
     inkscape:current-layer="greyscale">
    <sodipodi:guide
       position="512,750.04043"
       orientation="-1,0"
       id="guide68"
       inkscape:label=""
       inkscape:locked="false"
       inkscape:color="rgb(0,0,255)" />
    <sodipodi:guide
       position="409.11296,512"
       orientation="0,1"
       id="guide70"
       inkscape:label=""
       inkscape:locked="false"
       inkscape:color="rgb(0,0,255)" />
    <sodipodi:guide
       position="973.92665,1024"
       orientation="0,1"
       id="guide1951"
       inkscape:label=""
       inkscape:locked="false"
       inkscape:color="rgb(0,0,255)" />
    <sodipodi:guide
       position="977.68215,0"
       orientation="0,1"
       id="guide1953"
       inkscape:label=""
       inkscape:locked="false"
       inkscape:color="rgb(0,0,255)" />
  </sodipodi:namedview>
  <path
     id="rect94"
     style="display:inline;opacity:1;fill-rule:evenodd;stroke-width:1.17006"
     d="M 100 0 A 100 100 0 0 0 0 100 L 0 924 A 100 100 0 0 0 100 1024 L 924 1024 A 100 100 0 0 0 1024 924 L 1024 100 A 100 100 0 0 0 924 0 L 100 0 z M 334.73047 281.83594 L 743.98438 518.11914 L 334.73047 754.40234 L 334.73047 281.83594 z " />
  <path
     d="M 1002.6,265.53 C 990.72,221.37 956.23,186.88 912.07,175 832.21,153.6 512,153.6 512,153.6 c 0,0 -320.21,0 -400.07,21.4 C 67.77,186.88 33.28,221.37 21.4,265.53 0,345.39 0,512 0,512 c 0,0 0,166.61 21.4,246.47 11.88,44.16 46.37,78.65 90.53,90.53 79.86,21.4 400.07,21.4 400.07,21.4 0,0 320.21,0 400.07,-21.4 44.16,-11.88 78.65,-46.37 90.53,-90.53 C 1024,678.61 1024,512 1024,512 c 0,0 0,-166.61 -21.4,-246.47 z M 409.6,665.6 V 358.4 L 675.63,512 Z"
     id="path26"
     style="display:none;opacity:0.597855;fill:#008000" />
  <path
     id="rect94-8"
     style="display:none;fill-rule:evenodd;stroke-width:1.17006"
     d="m 100,0 h 824 a 100,100 45 0 1 100,100 V 924 A 100,100 135 0 1 924,1024 H 100 A 100,100 45 0 1 0,924 V 100 A 100,100 135 0 1 100,0 Z"
     inkscape:path-effect="#path-effect1722-6"
     inkscape:original-d="M 0,0 H 1024 V 1024 H 0 Z"
     sodipodi:nodetypes="ccccc" />
  <path
     sodipodi:type="star"
     style="display:none;opacity:1;fill:#ff0000;fill-opacity:1"
     id="path1581-1"
     inkscape:flatsided="true"
     sodipodi:sides="3"
     sodipodi:cx="-420.68201"
     sodipodi:cy="-532.78284"
     sodipodi:r1="161.73866"
     sodipodi:r2="80.869331"
     sodipodi:arg1="1.0471976"
     sodipodi:arg2="2.0943952"
     inkscape:rounded="0"
     inkscape:randomized="0"
     inkscape:transform-center-x="8.812867"
     inkscape:transform-center-y="17.529233"
     transform="matrix(-1.686894,0,0,-1.686894,-238.49771,-380.6291)"
     d="m -339.81268,-392.71304 -242.60799,-140.0698 242.608,-140.06978 z" />
</svg>
