<?xml version="1.0" encoding="UTF-8"?>
<svg id="greyscale" xmlns="http://www.w3.org/2000/svg" viewBox="0 0 1024 1024">
  <path d="M1002.6,265.53c-11.88-44.16-46.37-78.65-90.53-90.53-79.86-21.4-400.07-21.4-400.07-21.4,0,0-320.21,0-400.07,21.4-44.16,11.88-78.65,46.37-90.53,90.53C0,345.39,0,512,0,512c0,0,0,166.61,21.4,246.47,11.88,44.16,46.37,78.65,90.53,90.53,79.86,21.4,400.07,21.4,400.07,21.4,0,0,320.21,0,400.07-21.4,44.16-11.88,78.65-46.37,90.53-90.53,21.4-79.86,21.4-246.47,21.4-246.47,0,0,0-166.61-21.4-246.47ZM409.6,665.6V358.4l266.03,153.6-266.03,153.6Z"/>
</svg>