<?xml version="1.0" encoding="UTF-8"?>
<svg id="colour" xmlns="http://www.w3.org/2000/svg" viewBox="0 0 1024 1024">
  <defs>
    <style>
      .cls-1 {
        fill: #fff;
      }

      .cls-2 {
        fill: red;
      }
    </style>
  </defs>
  <path class="cls-2" d="M1024,512s0,166.61-21.4,246.47c-11.88,44.16-46.37,78.65-90.53,90.53-79.86,21.4-400.07,21.4-400.07,21.4,0,0-320.21,0-400.07-21.4-44.16-11.88-78.65-46.37-90.53-90.53C0,678.61,0,512,0,512c0,0,0-166.61,21.4-246.47,11.88-44.16,46.37-78.65,90.53-90.53,79.86-21.4,400.07-21.4,400.07-21.4,0,0,320.21,0,400.07,21.4,44.16,11.88,78.65,46.37,90.53,90.53,21.4,79.86,21.4,246.47,21.4,246.47Z"/>
  <polygon class="cls-1" points="645.02 512 378.98 665.6 378.98 358.4 645.02 512"/>
</svg>