<?xml version="1.0" encoding="UTF-8"?>
<svg id="Layer_2" data-name="Layer 2" xmlns="http://www.w3.org/2000/svg" viewBox="0 0 688 512">
  <defs>
    <style>
      .cls-1 {
        stroke-width: 40px;
      }

      .cls-1, .cls-2 {
        fill: none;
        stroke: #000;
        stroke-miterlimit: 10;
      }

      .cls-2 {
        stroke-width: 42px;
      }
    </style>
  </defs>
  <path d="m640,48v416H48V48h592m40-40H8v496h672V8h0Z"/>
  <line class="cls-1" x1="142" y1="8" x2="142" y2="504"/>
  <line class="cls-2" x1="548.87" y1="137.39" x2="678.26" y2="137.39"/>
  <line class="cls-1" x1="8" y1="142" x2="148" y2="142"/>
  <line class="cls-2" x1="548.87" y1="256" x2="678.26" y2="256"/>
  <line class="cls-1" x1="8" y1="256" x2="148" y2="256"/>
  <line class="cls-2" x1="548.87" y1="374.61" x2="678.26" y2="374.61"/>
  <line class="cls-1" x1="8" y1="370" x2="148" y2="370"/>
  <line class="cls-2" x1="548.87" y1="8" x2="548.87" y2="504"/>
  <path d="m274.94,169.97l137.61,86.03-137.61,86.03v-172.06m-24.92-60.1c-7.84,0-15.08,6.25-15.08,15.07v262.11c0,8.82,7.24,15.07,15.08,15.07,2.67,0,5.4-.72,7.94-2.31l209.62-131.05c9.43-5.89,9.43-19.63,0-25.52l-209.62-131.05c-2.54-1.59-5.28-2.31-7.94-2.31h0Z"/>
</svg>