<?xml version="1.0" encoding="UTF-8"?>
<svg id="Layer_2" data-name="Layer 2" xmlns="http://www.w3.org/2000/svg" viewBox="0 0 64 64">
  <path d="m47.613,24.869l5.309-9.197c.3-.516.118-1.17-.39-1.47-.509-.3-1.17-.125-1.463.39l-5.379,9.315c-4.104-1.874-8.723-2.919-13.69-2.919s-9.587,1.045-13.69,2.919l-5.379-9.315c-.3-.516-.954-.69-1.47-.39-.516.3-.69.954-.39,1.47l5.309,9.197C7.225,29.83,1.024,39.096,0,49.944h64c-1.024-10.848-7.225-20.114-16.387-25.075h0Zm-30.307,16.087c-1.484,0-2.682-1.205-2.682-2.682s1.205-2.682,2.682-2.682,2.682,1.205,2.682,2.682c.007,1.477-1.198,2.682-2.682,2.682Zm29.38,0c-1.484,0-2.682-1.205-2.682-2.682s1.205-2.682,2.682-2.682,2.682,1.205,2.682,2.682c.007,1.477-1.198,2.682-2.682,2.682Z"/>
</svg>