<?xml version="1.0" encoding="UTF-8"?>
<svg id="Layer_2" data-name="Layer 2" xmlns="http://www.w3.org/2000/svg" viewBox="0 0 64.2 64.1">
  <path d="m59.1,0H5.1C2.3,0,0,2.3,0,5.1v53.9c0,2.8,2.3,5.1,5.1,5.1h54c2.8,0,5.1-2.3,5.1-5.1V5.1c0-2.8-2.3-5.1-5.1-5.1Zm-7.5,4l-9.7,9.7h-11.8l9.7-9.7h11.8Zm-17.5,0l-9.7,9.7h-11.8l9.7-9.7h11.8Zm-30.1,1.1c0-.6.5-1,1-1h11.6L7,13.7h-3V5.1Zm56.1,53.9c0,.6-.5,1-1,1H5.1c-.6,0-1-.5-1-1V17.7h56.1v41.3h-.1Zm0-45.3h-12.5l9.6-9.7h1.8c.6,0,1,.5,1,1v8.7h.1Zm-16.7,24.3l-18.9-10.9c-.7-.4-1.6.1-1.6.9v21.8c0,.8.9,1.3,1.6.9l18.9-10.9c.7-.3.7-1.3,0-1.8h0Z"/>
</svg>