<?xml version="1.0" encoding="UTF-8" standalone="no"?>
<svg
   width="19"
   height="13"
   fill="currentColor"
   class="bi bi-film"
   viewBox="0 0 19 13"
   version="1.1"
   id="svg2148"
   sodipodi:docname="animations.svg"
   inkscape:version="1.2.2 (732a01da63, 2022-12-09)"
   xmlns:inkscape="http://www.inkscape.org/namespaces/inkscape"
   xmlns:sodipodi="http://sodipodi.sourceforge.net/DTD/sodipodi-0.dtd"
   xmlns="http://www.w3.org/2000/svg"
   xmlns:svg="http://www.w3.org/2000/svg">
  <defs
     id="defs2152" />
  <sodipodi:namedview
     id="namedview2150"
     pagecolor="#ffffff"
     bordercolor="#000000"
     borderopacity="0.25"
     inkscape:showpageshadow="2"
     inkscape:pageopacity="0.0"
     inkscape:pagecheckerboard="0"
     inkscape:deskcolor="#d1d1d1"
     showgrid="false"
     inkscape:zoom="45.254834"
     inkscape:cx="7.4356697"
     inkscape:cy="5.9220193"
     inkscape:window-width="1920"
     inkscape:window-height="1017"
     inkscape:window-x="-8"
     inkscape:window-y="-8"
     inkscape:window-maximized="1"
     inkscape:current-layer="svg2148"
     showguides="true"
     inkscape:lockguides="false">
    <sodipodi:guide
       position="17.230469,1"
       orientation="0,-1"
       id="guide6405"
       inkscape:locked="false" />
    <sodipodi:guide
       position="2,0"
       orientation="0,-1"
       id="guide6721"
       inkscape:locked="false" />
    <sodipodi:guide
       position="9.5,10.370447"
       orientation="-1,0"
       id="guide7154"
       inkscape:locked="false"
       inkscape:label=""
       inkscape:color="rgb(0,134,229)" />
    <sodipodi:guide
       position="8.1096309,6.5"
       orientation="0,1"
       id="guide7156"
       inkscape:locked="false"
       inkscape:label=""
       inkscape:color="rgb(0,134,229)" />
  </sodipodi:namedview>
  <path
     d="M 0,1 C 0,0.44771525 0.44771525,0 1,0 h 17 c 0.552285,0 1,0.44771525 1,1 v 11 c 0,0.552285 -0.447715,1 -1,1 H 1 C 0.44771525,13 0,12.552285 0,12 Z M 4,1 V 12 H 15 V 1 Z M 1,1 V 3 H 3 V 1 Z M 3,4 H 1 V 6 H 3 Z M 1,7 V 9 H 3 V 7 Z m 2,3 H 1 v 2 H 3 Z M 18,1 h -2 v 2 h 2 z m -2,3 v 2 h 2 V 4 Z m 2,3 h -2 v 2 h 2 z m -2,3 v 2 h 2 v -2 z"
     id="path2146"
     sodipodi:nodetypes="sssssssssccccccccccccccccccccccccccccccccccccccccccccc" />
  <path
     sodipodi:type="star"
     style="fill:#000000;fill-opacity:1;stroke:none"
     id="path7150"
     inkscape:flatsided="false"
     sodipodi:sides="3"
     sodipodi:cx="9.2266016"
     sodipodi:cy="6.5"
     sodipodi:r1="3.5067773"
     sodipodi:r2="1.7533886"
     sodipodi:arg1="1.5707963"
     sodipodi:arg2="2.6179939"
     inkscape:rounded="0"
     inkscape:randomized="0"
     d="M 9.2266017,10.006777 7.7081225,7.3766943 6.1896433,4.7466114 l 3.0369583,0 3.0369584,-1e-7 -1.518479,2.6300831 z"
     transform="rotate(-90,8.9249537,6.801648)"
     inkscape:transform-center-x="-0.33486743" />
</svg>
