<?xml version="1.0" encoding="UTF-8"?>
<svg id="Layer_2" data-name="Layer 2" xmlns="http://www.w3.org/2000/svg" viewBox="0 0 64.15 64.08">
  <path d="m59.08,0H5.07C2.27,0,0,2.27,0,5.07v53.94c0,2.79,2.27,5.07,5.07,5.07h54.01c2.8,0,5.07-2.28,5.07-5.07V5.07c0-2.8-2.27-5.07-5.07-5.07Zm-7.48,4.04l-9.69,9.69h-11.81l9.69-9.69h11.81Zm-17.46,0l-9.7,9.69h-11.81l9.69-9.69h11.82Zm-30.1,1.03c0-.57.46-1.03,1.03-1.03h11.6L6.97,13.73h-2.93V5.07Zm56.07,53.94c0,.56-.46,1.02-1.03,1.02H5.07c-.57,0-1.03-.46-1.03-1.02V17.73h56.07v41.28Zm0-45.28h-12.55l9.69-9.69h1.83c.57,0,1.03.46,1.03,1.03v8.66Z"/>
  <path d="m43.987,38.049l-18.906-10.915c-.711-.411-1.601.103-1.601.924v21.831c0,.822.89,1.335,1.601.924l18.906-10.915c.711-.411.711-1.438,0-1.848Z"/>
</svg>