<?xml version="1.0" encoding="UTF-8" standalone="no"?>
<svg
   width="56.615013"
   height="64"
   fill="currentColor"
   class="bi bi-boxes"
   viewBox="0 0 56.615013 64"
   version="1.1"
   id="svg13856"
   sodipodi:docname="cgi.svg"
   inkscape:version="1.2.2 (732a01da63, 2022-12-09)"
   inkscape:export-filename="cgi.svg"
   inkscape:export-xdpi="96"
   inkscape:export-ydpi="96"
   xmlns:inkscape="http://www.inkscape.org/namespaces/inkscape"
   xmlns:sodipodi="http://sodipodi.sourceforge.net/DTD/sodipodi-0.dtd"
   xmlns="http://www.w3.org/2000/svg"
   xmlns:svg="http://www.w3.org/2000/svg">
  <defs
     id="defs13860">
    <inkscape:path-effect
       effect="fillet_chamfer"
       id="path-effect43791"
       is_visible="true"
       lpeversion="1"
       nodesatellites_param="F,0,0,1,0,1,0,1 @ F,0,0,1,0,1,0,1 @ F,0,0,1,0,1,0,1 @ F,0,0,1,0,1,0,1 @ F,0,0,1,0,1,0,1 @ F,0,0,1,0,1,0,1"
       unit="px"
       method="auto"
       mode="F"
       radius="1"
       chamfer_steps="1"
       flexible="false"
       use_knot_distance="true"
       apply_no_radius="true"
       apply_with_radius="true"
       only_selected="false"
       hide_knots="false" />
  </defs>
  <sodipodi:namedview
     id="namedview13858"
     pagecolor="#ffffff"
     bordercolor="#000000"
     borderopacity="0.25"
     inkscape:showpageshadow="2"
     inkscape:pageopacity="0.0"
     inkscape:pagecheckerboard="0"
     inkscape:deskcolor="#d1d1d1"
     showgrid="false"
     inkscape:zoom="6.359375"
     inkscape:cx="13.601966"
     inkscape:cy="40.255528"
     inkscape:window-width="1920"
     inkscape:window-height="1017"
     inkscape:window-x="-8"
     inkscape:window-y="-8"
     inkscape:window-maximized="1"
     inkscape:current-layer="svg13856">
    <sodipodi:guide
       position="28.307507,-6.0395376e-07"
       orientation="64,0"
       id="guide14399"
       inkscape:locked="false" />
    <sodipodi:guide
       position="-3.6924932,31.999999"
       orientation="0,64"
       id="guide14401"
       inkscape:locked="false" />
  </sodipodi:namedview>
  <path
     d="m 27.315507,0.26336095 a 2,2.0000403 0 0 1 1.984,0 L 44.299506,8.8355337 a 2,2.0000403 0 0 1 1.008,1.7360353 v 15.980324 l 13.992001,8.00016 a 2,2.0000403 0 0 1 1.008,1.728036 v 17.144344 a 2,2.0000403 0 0 1 -1.008,1.736035 L 44.299506,63.73264 a 2,2.0000403 0 0 1 -1.984,0 L 28.307507,55.73248 14.299506,63.736641 a 2,2.0000403 0 0 1 -1.984,0 L -2.6844931,55.164468 A 2,2.0000403 0 0 1 -3.6924932,53.428434 V 36.284087 a 2,2.0000403 0 0 1 1.0080001,-1.736035 L 11.307506,26.551893 V 10.571569 a 2,2.0000403 0 0 1 1.008,-1.7360353 z M 13.307506,30.015961 2.3395068,36.284087 l 10.9679992,6.268128 10.968,-6.268128 z m 13.000001,9.716196 -10.999999,6.284126 v 12.536252 l 10.999999,-6.284126 z m 4,12.536252 10.999999,6.284126 V 46.016283 L 30.307507,39.732157 Z m 2.031998,-15.984322 10.968001,6.268128 10.968,-6.268128 -10.968,-6.268126 z m 8.968001,-9.732194 V 14.015639 L 30.307507,20.303766 V 32.840019 Z M 26.307507,32.840019 V 20.303766 L 15.307508,14.015639 v 12.536254 z m -8.968,-22.26845 10.968,6.268126 L 39.275508,10.571569 28.307507,4.3034424 Z M 56.307508,39.732157 45.307506,46.016283 V 58.552535 L 56.307508,52.268409 Z M 11.307506,58.552535 V 46.016283 L 0.30750677,39.732157 v 12.536252 z"
     id="path13854"
     style="display:none;fill:#b3b3b3;stroke-width:4.00003"
     inkscape:label="path13854" />
  <path
     sodipodi:type="star"
     style="fill:none;stroke:#000000;stroke-width:7.64672;stroke-dasharray:none;stroke-opacity:1"
     id="path14408"
     inkscape:flatsided="true"
     sodipodi:sides="6"
     sodipodi:cx="32"
     sodipodi:cy="32"
     sodipodi:r1="37.236076"
     sodipodi:r2="18.618038"
     sodipodi:arg1="0.52359878"
     sodipodi:arg2="1.0471976"
     inkscape:rounded="0"
     inkscape:randomized="0"
     d="M 63.381363,51.118038 32.866025,68.736076 a 1.7320508,1.7320508 2.521988e-7 0 1 -1.732051,0 L 0.61863726,51.118038 a 1.7320508,1.7320508 60 0 1 -0.8660254,-1.5 l 1.6e-7,-35.236076 a 1.7320508,1.7320508 120 0 1 0.86602541,-1.5 L 31.133975,-4.7360764 a 1.7320508,1.7320508 2.5219889e-7 0 1 1.732051,0 L 63.381363,12.881962 a 1.7320508,1.7320508 60 0 1 0.866025,1.5 l 0,35.236076 a 1.7320508,1.7320508 120 0 1 -0.866025,1.5 z"
     inkscape:transform-center-y="-7.3031265"
     transform="matrix(0.78477738,0,0,0.78452162,3.194631,6.8953079)"
     inkscape:path-effect="#path-effect43791" />
  <path
     style="display:inline;fill:none;stroke:#000000;stroke-width:6;stroke-dasharray:none;stroke-opacity:1"
     d="M 28.307507,32.000001 3.5946939,17.732052"
     id="path15921"
     sodipodi:nodetypes="cc" />
  <path
     style="display:inline;fill:none;stroke:#000000;stroke-width:6;stroke-dasharray:none;stroke-opacity:1"
     d="M 28.307507,32.000001 53.02032,17.732052"
     id="path15923"
     sodipodi:nodetypes="cc" />
  <path
     style="fill:none;stroke:#000000;stroke-width:6;stroke-dasharray:none;stroke-opacity:1"
     d="M 28.307507,32.000001 V 60.535899"
     id="path15925"
     sodipodi:nodetypes="cc" />
</svg>
