<?xml version="1.0" encoding="UTF-8" standalone="no"?>
<svg
   width="55.425625"
   height="63.999996"
   fill="currentColor"
   class="bi bi-boxes"
   viewBox="0 0 55.425625 63.999996"
   version="1.1"
   id="svg13856"
   xmlns="http://www.w3.org/2000/svg"
   xmlns:svg="http://www.w3.org/2000/svg">
  <defs
     id="defs13860" />
  <path
     d="m 26.720812,0.26335936 a 2,2.0000403 0 0 1 1.984,0 L 43.704811,8.8355321 a 2,2.0000403 0 0 1 1.008,1.7360349 v 15.980324 l 13.992001,8.00016 a 2,2.0000403 0 0 1 1.008,1.728036 v 17.144344 a 2,2.0000403 0 0 1 -1.008,1.736035 l -15.000001,8.572172 a 2,2.0000403 0 0 1 -1.984,0 l -14.007999,-8.00016 -14.008001,8.004161 a 2,2.0000403 0 0 1 -1.984,0 L -3.2791878,55.164466 A 2,2.0000403 0 0 1 -4.2871879,53.428432 V 36.284085 A 2,2.0000403 0 0 1 -3.2791878,34.54805 L 10.712811,26.551891 V 10.571567 a 2,2.0000403 0 0 1 1.008,-1.7360349 z M 12.712811,30.015959 1.7448121,36.284085 l 10.9679989,6.268128 10.968,-6.268128 z m 13.000001,9.716196 -10.999999,6.284126 v 12.536252 l 10.999999,-6.284126 z m 4,12.536252 10.999999,6.284126 V 46.016281 L 29.712812,39.732155 Z m 2.031998,-15.984322 10.968001,6.268128 10.968,-6.268128 -10.968,-6.268126 z m 8.968001,-9.732194 V 14.015637 L 29.712812,20.303764 V 32.840017 Z M 25.712812,32.840017 V 20.303764 L 14.712813,14.015637 v 12.536254 z m -8.968,-22.26845 10.968,6.268126 L 38.680813,10.571567 27.712812,4.3034408 Z M 55.712813,39.732155 44.712811,46.016281 V 58.552533 L 55.712813,52.268407 Z M 10.712811,58.552533 V 46.016281 L -0.28718796,39.732155 v 12.536252 z"
     id="path13854"
     style="display:none;fill:#b3b3b3;stroke-width:4.00003" />
  <path
     style="fill:none;stroke:#000000;stroke-width:7.82931;stroke-dasharray:none;stroke-opacity:1"
     id="path14408"
     d="M 64.247388,50.618038 32,69.236076 -0.24738814,50.618038 -0.24738798,13.381962 32,-5.2360764 64.247388,13.381962 Z"
     transform="matrix(0.76635084,0,0,0.76635084,3.1895852,7.4767721)" />
  <path
     style="display:inline;fill:none;stroke:#000000;stroke-width:6;stroke-dasharray:none;stroke-opacity:1"
     d="M 27.712812,31.999999 2.9999992,17.73205"
     id="path15921" />
  <path
     style="display:inline;fill:none;stroke:#000000;stroke-width:6;stroke-dasharray:none;stroke-opacity:1"
     d="M 27.712812,31.999999 52.425625,17.73205"
     id="path15923" />
  <path
     style="fill:none;stroke:#000000;stroke-width:6;stroke-dasharray:none;stroke-opacity:1"
     d="M 27.712812,31.999999 V 60.535897"
     id="path15925" />
</svg>
