<?xml version="1.0" encoding="UTF-8"?>
<svg id="layer1" xmlns="http://www.w3.org/2000/svg" viewBox="0 0 56.818 64">
  <path d="m28.408,64c-.895,0-1.789-.23-2.588-.69L2.589,49.897c-1.596-.922-2.589-2.639-2.589-4.484v-26.825c0-1.844.992-3.563,2.589-4.484L25.819.691c1.598-.922,3.583-.922,5.178,0l23.231,13.412c1.597.922,2.59,2.64,2.59,4.484v26.825c0,1.845-.993,3.564-2.591,4.484l-23.23,13.413c-.799.46-1.694.69-2.589.69ZM4.116,20.352v25.061c0,.378.203.73.53.919l21.704,12.531v-25.714c-.181-.078-.358-.167-.531-.266L4.116,20.352Zm26.351,12.797v25.714l21.703-12.531c.329-.189.532-.541.532-.919v-25.062l-21.704,12.531c-.173.1-.35.188-.531.267ZM6.175,16.786l21.703,12.531c.327.188.734.189,1.062,0l21.703-12.53L28.94,4.256c-.327-.19-.736-.189-1.062,0L6.175,16.786Z"/>
</svg>