<svg xmlns="http://www.w3.org/2000/svg" viewBox="0 0 512 512"><defs><style>.cls-1{fill:none;stroke:#000;stroke-linecap:round;stroke-linejoin:round;stroke-width:32px;}</style></defs><g id="cyberthugCore"><polygon class="cls-1" points="423.02 134.03 88.98 134.03 65.12 157.89 65.12 205.6 88.98 229.47 423.02 229.47 446.88 205.6 446.88 157.89 423.02 134.03"/><polygon class="cls-1" points="104.89 134.03 104.89 94.26 128.75 70.4 383.25 70.4 407.11 94.26 407.11 134.03 104.89 134.03"/><polygon class="cls-1" points="148.09 70.4 148.09 39.57 171.21 16.45 340.79 16.45 363.91 39.57 363.91 70.4 148.09 70.4"/><polygon class="cls-1" points="104.89 229.47 104.89 269.23 128.75 293.09 383.25 293.09 407.11 269.23 407.11 229.47 104.89 229.47"/><polygon class="cls-1" points="148.09 293.09 148.09 323.92 171.21 347.05 340.79 347.05 363.91 323.92 363.91 293.09 148.09 293.09"/><rect class="cls-1" x="217.59" y="347.05" width="76.82" height="59.65"/><polygon class="cls-1" points="169.01 406.69 129.48 495.55 382.52 495.55 342.99 406.69 169.01 406.69"/></g></svg>