<?xml version="1.0" encoding="utf-8"?>
<!-- Generator: Adobe Illustrator 27.7.0, SVG Export Plug-In . SVG Version: 6.00 Build 0)  -->
<svg version="1.1" id="Layer_2" xmlns="http://www.w3.org/2000/svg" xmlns:xlink="http://www.w3.org/1999/xlink" x="0px" y="0px"
	 viewBox="0 0 64 64" style="enable-background:new 0 0 64 64;" xml:space="preserve">
<path d="M54.7,13.6L42.6,1.5c-1-1-2.2-1.5-3.6-1.5H12.8c-2.8,0-5,2.3-5,5V59c0,2.8,2.3,5,5,5h38.3c2.8,0,5-2.3,5-5V17.1
	C56.2,15.8,55.7,14.5,54.7,13.6z M52.2,59c0,0.6-0.5,1-1,1H12.8c-0.6,0-1-0.5-1-1V5c0-0.6,0.5-1,1-1h25.5v8.8c0,2.8,2.3,5.1,5,5.1
	h8.8V59z"/>
<g>
	<path d="M30.7,50.8l-10-8.6c-0.8-0.7-0.9-2-0.2-2.8l0,0c0.7-0.8,2-0.9,2.8-0.2l6.6,5.8V26.6c0-1.1,0.9-2,2-2h0c1.1,0,2,0.9,2,2
		v18.2l6.6-5.8c0.8-0.7,2.1-0.6,2.8,0.2l0,0c0.7,0.8,0.6,2.1-0.2,2.8l-10,8.6C32.6,51.4,31.4,51.4,30.7,50.8z"/>
</g>
</svg>
