<?xml version="1.0" encoding="UTF-8"?>
<svg id="Layer_2" data-name="Layer 2" xmlns="http://www.w3.org/2000/svg" viewBox="0 0 48.313 64">
  <path d="m46.9,13.6L34.8,1.5c-1-1-2.2-1.5-3.6-1.5H5C2.2,0,0,2.3,0,5v54c0,2.8,2.3,5,5,5h38.3c2.8,0,5-2.3,5-5V17.1c.1-1.3-.4-2.6-1.4-3.5Zm-2.5,45.4c0,.6-.5,1-1,1H5c-.6,0-1-.5-1-1V5c0-.6.5-1,1-1h25.5v8.8c0,2.8,2.3,5.1,5,5.1h8.8v41.1h.1Zm-21.5-8.2l-10-8.6c-.8-.7-.9-2-.2-2.8h0c.7-.8,2-.9,2.8-.2l6.6,5.8v-18.4c0-1.1.9-2,2-2h0c1.1,0,2,.9,2,2v18.2l6.6-5.8c.8-.7,2.1-.6,2.8.2h0c.7.8.6,2.1-.2,2.8l-10,8.6c-.5.8-1.7.8-2.4.2Z"/>
</svg>