<?xml version="1.0" encoding="UTF-8" standalone="no"?>
<svg
   id="Layer_1"
   viewBox="0 0 512 512"
   version="1.1"
   sodipodi:docname="social-linkedin.svg"
   width="512"
   height="512"
   inkscape:version="1.1.2 (b8e25be833, 2022-02-05)"
   xmlns:inkscape="http://www.inkscape.org/namespaces/inkscape"
   xmlns:sodipodi="http://sodipodi.sourceforge.net/DTD/sodipodi-0.dtd"
   xmlns="http://www.w3.org/2000/svg"
   xmlns:svg="http://www.w3.org/2000/svg">
  <defs
     id="defs838" />
  <sodipodi:namedview
     id="namedview836"
     pagecolor="#ffffff"
     bordercolor="#666666"
     borderopacity="1.0"
     inkscape:pageshadow="2"
     inkscape:pageopacity="0.0"
     inkscape:pagecheckerboard="0"
     showgrid="false"
     width="256px"
     showguides="true"
     inkscape:guide-bbox="true"
     inkscape:zoom="1.5976562"
     inkscape:cx="259.44254"
     inkscape:cy="249.74083"
     inkscape:window-width="1920"
     inkscape:window-height="1027"
     inkscape:window-x="-8"
     inkscape:window-y="-8"
     inkscape:window-maximized="1"
     inkscape:current-layer="Layer_1">
    <sodipodi:guide
       position="227.20782,256"
       orientation="0,1"
       id="guide922"
       inkscape:label=""
       inkscape:locked="false"
       inkscape:color="rgb(0,0,255)" />
    <sodipodi:guide
       position="256,274.15159"
       orientation="-1,0"
       id="guide924"
       inkscape:label=""
       inkscape:locked="false"
       inkscape:color="rgb(0,0,255)" />
  </sodipodi:namedview>
  <g
     id="bw"
     transform="scale(0.5)">
    <path
       d="M 941.29,0 H 82.71 C 37.03,0 0,37.03 0,82.71 V 941.29 C 0,986.97 37.03,1024 82.71,1024 h 858.58 c 45.68,0 82.71,-37.03 82.71,-82.71 V 82.71 C 1024,37.03 986.97,0 941.29,0 Z M 306,870 H 158 V 387 H 306 Z M 232,320 c -47.5,0 -86,-38.5 -86,-86 0,-47.5 38.5,-86 86,-86 47.5,0 86,38.5 86,86 0,47.5 -38.5,86 -86,86 z M 871,870 H 723 V 612 C 723,458 551,496 551,608 V 870 H 403 V 387 h 148 v 63.18 C 571,358 871,291 871,582 Z"
       id="path832" />
  </g>
</svg>
