<?xml version="1.0" encoding="UTF-8"?>
<svg id="Layer_2" data-name="Layer 2" xmlns="http://www.w3.org/2000/svg" viewBox="0 0 64.03 46.16">
  <path d="m25.72,18.148h0c0,1.105-.895,2-2,2h-2.3v2.3c0,1.105-.895,2-2,2h0c-1.105,0-2-.895-2-2v-2.3h-2.31c-1.105,0-2-.895-2-2h0c0-1.105.895-2,2-2h2.31v-2.31c0-1.105.895-2,2-2h0c1.105,0,2,.895,2,2v2.31h2.3c1.105,0,2,.895,2,2Zm21.193,0c0,1.105.895,2,2,2s2-.895,2-2c0-1.105-.895-2-2-2s-2,.895-2,2Zm-6.61-2c1.105,0,2,.895,2,2,0,1.105-.895,2-2,2s-2-.895-2-2c0-1.105.895-2,2-2Zm4.305-4.31c1.105,0,2,.895,2,2s-.895,2-2,2-2-.895-2-2,.895-2,2-2Zm0,8.61c1.105,0,2,.895,2,2,0,1.105-.895,2-2,2s-2-.895-2-2c0-1.105.895-2,2-2Zm11.152-14.908c-.79-1.27-1.89-2.3-3.18-3-3.15-1.71-9.88-2.54-20.57-2.54S14.59.83,11.44,2.54c-1.28.7-2.38,1.73-3.18,3C4.27,11.9,0,22.79,0,34.28c0,6.8,1.79,10.73,5.34,11.69.48.13.98.19,1.47.19,3.89,0,8.08-3.75,10.5-7.92,3.42-5.88,3.62-6.23,14.7-6.23s11.29.35,14.7,6.23c2.42,4.17,6.62,7.92,10.5,7.92.5,0,.99-.06,1.47-.19,3.55-.96,5.35-4.89,5.35-11.69,0-11.49-4.27-22.38-8.27-28.74Zm1.88,36.56c-1.66.46-5.14-1.85-7.47-5.87-4.33-7.45-6.02-8.22-18.15-8.22h-.01c-12.13,0-13.83.77-18.16,8.22-2.33,4.02-5.8,6.33-7.47,5.87-1.15-.31-2.38-2.53-2.38-7.82,0-10.64,3.95-20.72,7.65-26.61.44-.7,1.01-1.24,1.7-1.61,1.73-.94,6.37-2.06,18.66-2.06s16.93,1.12,18.66,2.06c.7.37,1.27.91,1.7,1.61,3.71,5.89,7.66,15.97,7.66,26.61,0,5.29-1.23,7.51-2.39,7.82Z"/>
</svg>