<?xml version="1.0" encoding="UTF-8" standalone="no"?>
<svg
   width="15.242608"
   height="11.45288"
   fill="currentColor"
   class="bi bi-controller"
   viewBox="0 0 15.242608 11.45288"
   version="1.1"
   id="svg1789"
   sodipodi:docname="software.svg"
   inkscape:version="1.2.2 (732a01da63, 2022-12-09)"
   xmlns:inkscape="http://www.inkscape.org/namespaces/inkscape"
   xmlns:sodipodi="http://sodipodi.sourceforge.net/DTD/sodipodi-0.dtd"
   xmlns="http://www.w3.org/2000/svg"
   xmlns:svg="http://www.w3.org/2000/svg">
  <defs
     id="defs1793" />
  <sodipodi:namedview
     id="namedview1791"
     pagecolor="#ffffff"
     bordercolor="#000000"
     borderopacity="0.25"
     inkscape:showpageshadow="2"
     inkscape:pageopacity="0.0"
     inkscape:pagecheckerboard="0"
     inkscape:deskcolor="#d1d1d1"
     showgrid="false"
     inkscape:zoom="71.948115"
     inkscape:cx="5.6360059"
     inkscape:cy="5.4483707"
     inkscape:window-width="1920"
     inkscape:window-height="1017"
     inkscape:window-x="-8"
     inkscape:window-y="-8"
     inkscape:window-maximized="1"
     inkscape:current-layer="svg1789" />
  <path
     d="m 11.121676,3.715 a 0.5,0.5 0 1 1 -1,0 0.5,0.5 0 0 1 1,0 z m -1.4999999,1.5 a 0.5,0.5 0 1 0 0,-1 0.5,0.5 0 0 0 0,1 z m 2.4999999,-0.5 a 0.5,0.5 0 1 1 -1,0 0.5,0.5 0 0 1 1,0 z m -1.5,1.5 a 0.5,0.5 0 1 0 0,-1 0.5,0.5 0 0 0 0,1 z m -6.4999999,-3 h 1 v 1 h 1 v 1 h -1 v 1 h -1 v -1 h -1 v -1 h 1 z"
     id="path1785" />
  <path
     d="m 2.6726761,1.1479579 a 0.5,0.5 0 0 1 0.354,-0.61299999 l 1.932,-0.518 a 0.5,0.5 0 0 1 0.62,0.39 c 0.655,-0.079 1.35,-0.117 2.043,-0.117 0.72,0 1.443,0.041 2.12,0.126 a 0.5,0.5 0 0 1 0.6219999,-0.399 l 1.932,0.518 a 0.5,0.5 0 0 1 0.306,0.72899999 c 0.14,0.09 0.266,0.19 0.373,0.297 0.408,0.408 0.78,1.05 1.095,1.772 0.32,0.733 0.599,1.591 0.805,2.466 0.206,0.875 0.34,1.78 0.364,2.606 0.024,0.816 -0.059,1.6020001 -0.328,2.2100001 a 1.42,1.42 0 0 1 -1.445,0.83 c -0.636,-0.067 -1.115,-0.394 -1.513,-0.773 -0.245,-0.232 -0.496,-0.526 -0.739,-0.8080001 -0.126,-0.148 -0.25,-0.292 -0.368,-0.423 -0.728,-0.804 -1.5969999,-1.527 -3.2239999,-1.527 -1.627,0 -2.496,0.723 -3.224,1.527 -0.119,0.131 -0.242,0.275 -0.368,0.423 -0.243,0.2820001 -0.494,0.5750001 -0.739,0.8080001 -0.398,0.38 -0.877,0.706 -1.513,0.773 a 1.42,1.42 0 0 1 -1.44500005,-0.83 c -0.27,-0.608 -0.352,-1.3950001 -0.329,-2.2100001 0.024,-0.826 0.16,-1.73 0.365,-2.606 0.206,-0.875 0.486,-1.733 0.80500005,-2.466 0.315,-0.722 0.687,-1.364 1.094,-1.772 a 2.34,2.34 0 0 1 0.433,-0.335 0.504,0.504 0 0 1 -0.028,-0.079 z m 2.036,0.412 c -0.877,0.185 -1.469,0.443 -1.733,0.708 -0.276,0.276 -0.587,0.783 -0.885,1.465 a 13.748,13.748 0 0 0 -0.748,2.295 12.351,12.351 0 0 0 -0.339,2.406 c -0.0220001,0.755 0.062,1.368 0.243,1.7760001 a 0.42,0.42 0 0 0 0.426,0.24 c 0.327,-0.034 0.61,-0.199 0.929,-0.5020001 0.212,-0.202 0.4,-0.423 0.615,-0.674 0.133,-0.156 0.276,-0.323 0.44,-0.504 0.826,-0.913 1.943,-1.855 3.965,-1.855 2.022,0 3.1389999,0.942 3.9649999,1.855 0.164,0.181 0.307,0.348 0.44,0.504 0.214,0.251 0.403,0.472 0.615,0.674 0.318,0.3030001 0.601,0.4680001 0.929,0.5030001 a 0.42,0.42 0 0 0 0.426,-0.241 c 0.18,-0.4080001 0.265,-1.0200001 0.243,-1.7760001 a 12.354,12.354 0 0 0 -0.339,-2.406 13.753,13.753 0 0 0 -0.748,-2.295 c -0.298,-0.682 -0.61,-1.19 -0.885,-1.465 -0.264,-0.265 -0.856,-0.523 -1.733,-0.708 -0.8499999,-0.179 -1.8769999,-0.27 -2.9129999,-0.27 -1.036,0 -2.063,0.091 -2.913,0.27 z"
     id="path1787" />
</svg>
