<?xml version="1.0" encoding="UTF-8"?>
<svg id="Layer_2" data-name="Layer 2" xmlns="http://www.w3.org/2000/svg" viewBox="0 0 64 64">
  <path d="m32,5c14.888,0,27,12.112,27,27s-12.112,27-27,27S5,46.888,5,32,17.112,5,32,5m0-5C14.327,0,0,14.327,0,32s14.327,32,32,32,32-14.327,32-32S49.673,0,32,0h0Z"/>
  <path d="m32,27.294c2.595,0,4.706,2.111,4.706,4.706s-2.111,4.706-4.706,4.706-4.706-2.111-4.706-4.706,2.111-4.706,4.706-4.706m0-5c-5.361,0-9.706,4.346-9.706,9.706s4.346,9.706,9.706,9.706,9.706-4.346,9.706-9.706-4.346-9.706-9.706-9.706h0Z"/>
</svg>