<?xml version="1.0" encoding="UTF-8"?>
<svg id="Layer_2" data-name="Layer 2" xmlns="http://www.w3.org/2000/svg" viewBox="0 0 48.4 64">
  <path d="m46.92,13.57L34.83,1.48c-.96-.96-2.22-1.48-3.57-1.48H5.05C2.27,0,0,2.26,0,5.05v53.9c0,2.79,2.27,5.05,5.05,5.05h38.3c2.78,0,5.05-2.26,5.05-5.05V17.14c0-1.35-.53-2.61-1.48-3.57Zm-2.55,45.38c0,.56-.46,1.02-1.02,1.02H5.05c-.56,0-1.02-.46-1.02-1.02V5.05c0-.56.46-1.02,1.02-1.02h25.45v8.82c0,2.78,2.26,5.05,5.05,5.05h8.82v41.05Z"/>
  <path d="m12.375,48.468h15.341c1.105,0,2,.895,2,2h0c0,1.105-.895,2-2,2h-15.341c-1.105,0-2-.895-2-2h0c0-1.105.895-2,2-2Z"/>
  <path d="m12.375,38.468h23.649c1.105,0,2,.895,2,2h0c0,1.105-.895,2-2,2H12.375c-1.105,0-2-.895-2-2h0c0-1.105.895-2,2-2Z"/>
  <rect x="10.375" y="28.468" width="27.649" height="4" rx="2" ry="2"/>
</svg>