<?xml version="1.0" encoding="UTF-8"?>
<svg id="greyscale" xmlns="http://www.w3.org/2000/svg" viewBox="0 0 64 64">
  <path d="m62.662,16.596c-.743-2.76-2.898-4.916-5.658-5.658-4.991-1.337-25.004-1.337-25.004-1.337,0,0-20.013,0-25.004,1.337-2.76.743-4.916,2.898-5.658,5.658-1.337,4.991-1.337,15.404-1.337,15.404,0,0,0,10.413,1.337,15.404.742,2.76,2.898,4.916,5.658,5.658,4.991,1.338,25.004,1.338,25.004,1.338,0,0,20.013,0,25.004-1.338,2.76-.743,4.916-2.898,5.658-5.658,1.338-4.991,1.338-15.404,1.338-15.404,0,0,0-10.413-1.338-15.404h0Zm-37.062,25.004v-19.2l16.627,9.6-16.627,9.6Z"/>
</svg>